<?xml version="1.0" standalone="no"?>
<!DOCTYPE svg PUBLIC "-//W3C//DTD SVG 20010904//EN"
 "http://www.w3.org/TR/2001/REC-SVG-20010904/DTD/svg10.dtd">
<svg version="1.0" xmlns="http://www.w3.org/2000/svg"
 width="661.000000pt" height="661.000000pt" viewBox="0 0 661.000000 661.000000"
 preserveAspectRatio="xMidYMid meet">
<metadata>
Created by potrace 1.11, written by Peter Selinger 2001-2013
</metadata>
<g transform="translate(0.000000,661.000000) scale(0.100000,-0.100000)"
fill="#000000" stroke="none">
<path d="M3234 5890 c50 -25 58 -25 26 0 -14 11 -34 19 -45 19 -14 0 -7 -6 19
-19z"/>
<path d="M3638 5868 c-63 -66 -72 -79 -79 -108 -3 -14 -10 -24 -17 -23 -6 2
-9 -4 -6 -12 4 -9 0 -15 -9 -15 -8 0 -18 7 -21 16 -3 9 -13 14 -20 11 -8 -3
-17 1 -20 9 -9 24 -7 27 9 14 12 -10 15 -9 15 5 0 10 3 15 6 12 4 -3 15 -2 25
3 11 7 19 6 22 0 3 -6 4 -5 3 2 -2 7 -12 12 -22 10 -10 -2 -35 -4 -54 -5 -22
-1 -34 -7 -32 -15 1 -7 -8 -12 -20 -12 -39 0 -68 12 -68 26 0 8 -4 14 -8 14
-5 0 -15 11 -22 24 -7 14 -19 28 -28 31 -12 4 -12 1 2 -20 18 -28 11 -32 -19
-12 -11 7 -46 22 -77 32 -31 10 -54 23 -51 28 4 6 1 7 -8 1 -8 -4 -30 -10 -49
-11 -19 -1 -44 -4 -56 -6 -32 -5 -97 -42 -103 -58 -4 -12 -1 -12 15 1 12 9 10
4 -5 -13 -29 -33 -37 -34 -44 -6 -4 14 -11 20 -20 16 -11 -4 -14 0 -10 16 4
20 3 21 -10 5 -8 -10 -23 -18 -33 -18 -10 0 -28 -7 -38 -15 -17 -13 -18 -15
-3 -15 9 0 17 -4 17 -9 0 -16 -74 -18 -115 -4 -54 19 -85 10 -85 -23 0 -18 7
-28 21 -31 12 -4 18 -11 15 -20 -3 -8 -6 -18 -6 -22 0 -4 -16 -13 -35 -20 -43
-15 -75 -54 -68 -82 5 -19 4 -20 -16 -9 -18 9 -27 8 -48 -5 -25 -17 -27 -33
-8 -77 6 -15 2 -18 -25 -18 -19 0 -29 -4 -25 -10 4 -6 1 -18 -7 -27 -10 -13
-7 -13 17 2 l30 19 -25 -27 c-13 -15 -30 -25 -36 -23 -7 3 -18 -1 -24 -9 -20
-24 -66 -28 -102 -9 -18 10 -37 17 -42 16 -4 -2 -15 3 -23 10 -12 9 -16 9 -24
-3 -5 -8 -7 -21 -5 -31 2 -9 -1 -40 -6 -69 -9 -51 -29 -78 -56 -79 -7 0 -38
-16 -68 -35 -30 -19 -58 -35 -62 -35 -12 0 -56 -50 -78 -88 -10 -17 -25 -34
-34 -38 -32 -11 -120 -176 -120 -225 0 -16 -3 -19 -13 -11 -9 8 -13 3 -14 -21
0 -20 -9 -37 -22 -45 -12 -8 -21 -21 -21 -29 0 -7 -10 -27 -21 -42 -38 -51
-51 -171 -22 -203 13 -15 14 -18 2 -18 -8 0 -21 6 -28 13 -11 10 -12 9 -6 -2
6 -11 4 -13 -11 -8 -15 6 -14 3 5 -13 13 -11 38 -20 57 -20 37 0 51 -14 34
-35 -9 -11 -7 -12 9 -8 20 5 21 2 16 -46 -3 -35 -1 -51 7 -51 6 0 -1 -14 -17
-30 -18 -18 -31 -26 -35 -19 -11 17 1 60 20 71 18 11 16 48 -2 48 -5 0 -6 -4
-3 -10 3 -5 -1 -10 -9 -10 -8 0 -15 -8 -16 -17 -5 -78 -9 -135 -13 -173 -2
-25 -1 -54 4 -65 7 -19 8 -19 8 2 1 35 19 36 26 1 4 -18 14 -44 22 -56 8 -13
12 -26 9 -29 -3 -3 -13 8 -23 26 -18 31 -33 40 -33 20 0 -6 13 -29 29 -52 15
-23 26 -48 23 -56 -2 -8 0 -11 6 -7 6 4 10 -8 9 -30 -1 -24 5 -41 16 -49 9 -7
17 -17 17 -24 0 -6 5 -11 10 -11 16 0 12 -17 -6 -24 -9 -4 -23 -1 -30 5 -10 8
-14 8 -14 1 0 -19 34 -31 54 -20 16 9 18 8 12 -7 -3 -10 -2 -23 3 -29 7 -10
17 -51 27 -111 2 -11 6 -33 9 -50 4 -16 2 -49 -3 -73 -8 -33 -7 -42 2 -39 7 3
13 -5 14 -19 1 -13 -4 -24 -11 -24 -7 -1 -5 -6 6 -14 19 -15 23 -66 5 -66 -7
0 -26 -11 -43 -24 l-30 -24 2 -184 c2 -123 7 -207 18 -258 20 -92 62 -239 75
-262 6 -10 10 -35 10 -56 0 -78 37 -147 101 -188 34 -21 38 -27 29 -49 -8 -20
-6 -27 9 -34 10 -6 21 -8 24 -5 8 8 3 -18 -6 -33 -4 -6 -1 -14 5 -17 9 -3 8
-9 -6 -20 -17 -14 -18 -16 -2 -22 9 -4 23 -19 31 -35 17 -33 19 -43 5 -34 -5
3 -19 -4 -30 -15 -21 -21 -21 -22 -3 -35 10 -8 22 -15 27 -15 6 0 4 -6 -2 -12
-10 -10 -15 -10 -22 2 -8 12 -9 9 -7 -9 2 -13 11 -29 20 -36 9 -7 17 -16 17
-20 0 -4 -6 -2 -14 4 -12 10 -17 8 -27 -11 -16 -29 -19 -98 -5 -97 26 3 36 -2
36 -17 0 -9 10 -25 22 -36 25 -22 31 -57 11 -65 -18 -7 -39 12 -24 21 15 10
14 33 -3 39 -10 4 -13 -5 -13 -33 0 -24 5 -41 13 -44 8 -3 14 -18 15 -33 0
-15 3 -23 5 -17 3 6 16 9 29 6 20 -3 23 -9 20 -36 -2 -17 1 -38 6 -46 9 -12
10 -12 5 3 -4 12 -2 17 6 15 7 -3 14 -20 16 -38 3 -29 1 -32 -11 -21 -12 9
-17 9 -23 0 -4 -8 -3 -9 4 -5 8 4 12 0 12 -11 0 -12 8 -19 20 -20 11 -1 18 2
15 7 -8 13 6 41 17 34 5 -3 7 -11 5 -18 -3 -7 4 -13 15 -13 29 -3 33 -10 17
-29 -11 -13 -11 -18 -1 -21 18 -7 15 -17 -13 -47 -23 -25 -12 -39 13 -14 6 6
15 8 19 3 5 -4 3 -10 -3 -12 -7 -2 -10 -13 -7 -23 3 -11 0 -20 -6 -20 -6 0
-11 -4 -11 -10 0 -5 6 -10 14 -10 19 0 26 -46 9 -69 -8 -13 -10 -22 -3 -26 5
-3 10 1 10 9 0 9 5 16 11 16 6 0 9 -6 6 -14 -3 -7 0 -19 6 -26 9 -10 8 -12 -5
-7 -10 4 -18 2 -18 -3 0 -6 7 -10 15 -10 8 0 15 -4 15 -10 0 -5 -7 -10 -16
-10 -8 0 -12 -5 -9 -10 4 -6 1 -18 -7 -27 -11 -15 -11 -16 5 -10 9 3 17 2 17
-4 0 -6 8 -18 17 -27 16 -16 16 -16 11 6 -8 27 8 29 24 2 7 -11 18 -20 24 -20
10 0 26 -39 23 -57 -2 -14 31 -24 50 -14 14 8 22 7 31 -4 9 -11 9 -15 1 -15
-6 0 -11 5 -11 11 0 8 -5 7 -16 -1 -13 -12 -11 -15 15 -26 19 -8 36 -26 46
-50 8 -20 18 -34 22 -31 3 4 1 13 -5 20 -7 8 -9 17 -5 21 9 9 44 -64 36 -77
-3 -5 0 -8 8 -5 8 3 15 14 17 26 3 21 4 21 29 5 l26 -17 -24 -7 -24 -7 23 -7
c12 -4 22 -12 22 -17 0 -6 8 -7 17 -4 16 6 16 6 0 -12 -19 -21 -23 -37 -6 -27
19 12 64 13 72 1 6 -8 10 -8 14 2 10 26 23 10 19 -24 l-5 -36 23 21 23 21 28
-22 28 -22 -5 22 c-8 30 8 28 36 -5 17 -20 27 -24 42 -18 10 5 36 9 57 9 22 1
42 7 47 16 8 12 10 12 16 -3 3 -9 10 -17 16 -17 5 0 7 4 4 9 -4 5 3 7 15 4 13
-4 18 -11 14 -21 -4 -12 -3 -13 10 -2 8 7 12 16 9 21 -3 5 0 8 7 7 7 -2 17 6
23 18 11 20 13 20 36 5 23 -15 23 -15 18 5 -4 18 -2 21 14 16 14 -3 16 -7 7
-12 -7 -5 -9 -16 -5 -26 6 -16 7 -16 20 1 8 11 18 15 26 10 9 -5 11 -4 6 4 -5
8 6 11 38 9 30 -1 46 -6 46 -14 0 -17 -23 -30 -28 -16 -2 7 -10 12 -18 12 -10
0 -9 -5 6 -20 17 -17 24 -18 45 -8 14 6 25 16 25 22 0 6 4 5 9 -3 5 -8 7 -20
4 -28 -3 -7 0 -13 6 -13 6 0 11 8 12 18 0 13 2 12 9 -6 8 -20 12 -21 30 -10
11 7 20 18 20 25 0 17 16 16 32 -1 11 -11 18 -12 38 -1 14 7 44 11 68 10 23
-1 42 2 42 7 0 4 -8 8 -17 8 -13 0 -14 3 -5 12 9 9 15 9 24 0 16 -16 28 -15
28 3 0 8 4 15 10 15 5 0 9 -3 9 -7 -4 -22 2 -25 15 -8 11 16 17 17 29 7 13
-11 19 -9 36 9 12 13 21 26 21 31 0 4 9 3 20 -4 16 -11 24 -8 57 19 24 20 37
38 36 51 -2 16 2 19 19 14 16 -4 20 -2 15 10 -3 10 3 20 18 28 24 13 50 6 40
-11 -4 -5 -2 -9 4 -9 6 0 22 20 36 44 28 48 53 64 67 44 5 -9 8 -6 8 10 0 12
6 22 14 22 8 0 16 7 20 15 3 9 0 15 -9 15 -8 0 -15 7 -15 15 0 8 7 15 15 15 8
0 15 9 15 19 0 11 5 23 10 26 6 4 8 11 5 16 -4 5 1 9 9 9 21 0 20 -10 -1 -27
-13 -10 -14 -13 -3 -11 10 2 14 -6 14 -29 0 -25 3 -30 13 -21 7 6 14 20 14 32
1 17 2 17 6 4 2 -10 8 -18 13 -18 5 0 7 7 4 15 -3 8 -2 19 2 26 13 21 14 99 1
99 -7 0 -1 6 13 13 18 10 24 20 22 39 -2 20 7 31 38 53 32 22 41 35 40 54 -3
41 -1 44 17 30 18 -15 18 -16 -2 34 -5 12 -2 17 10 17 10 0 13 4 9 13 -5 7 -1
6 10 -2 16 -13 17 -13 15 0 -1 7 3 25 9 39 6 14 11 21 12 15 1 -13 20 16 20
31 0 6 -14 10 -30 9 -17 -1 -38 4 -48 12 -16 13 -15 14 5 8 18 -5 22 -3 17 9
-5 12 -2 15 11 10 13 -5 16 -2 14 17 -3 31 8 56 26 56 9 0 11 -6 5 -22 -7 -19
-6 -21 17 -17 18 3 23 9 20 23 -3 11 0 19 5 19 7 0 7 4 1 12 -5 7 -8 29 -6 48
2 26 0 31 -9 22 -20 -20 -32 -14 -14 7 13 15 14 20 4 24 -7 2 -9 8 -5 13 5 5
13 1 18 -9 13 -22 26 -22 26 0 0 19 -31 53 -48 53 -7 0 1 12 17 27 19 17 24
28 16 31 -9 3 -10 8 -2 17 7 9 6 16 -5 25 -19 16 -19 30 -1 30 8 0 16 7 19 14
4 10 1 13 -9 9 -8 -3 -14 1 -14 11 0 9 8 16 19 16 10 0 26 11 35 25 9 14 12
25 7 25 -5 0 -13 -9 -16 -20 -6 -20 -35 -29 -35 -10 0 21 24 60 37 60 10 0 12
6 8 21 -5 14 -1 25 10 33 15 11 16 16 5 36 -11 20 -9 25 15 48 50 46 88 172
53 172 -9 0 -8 3 2 10 12 7 12 12 2 22 -6 6 -11 21 -11 33 1 16 2 17 6 3 2
-10 8 -18 13 -18 10 0 67 171 75 225 6 49 4 43 -30 -68 -16 -53 -30 -85 -37
-81 -6 4 -8 -1 -3 -15 4 -15 2 -21 -8 -21 -19 0 -70 86 -74 125 l-3 30 20 -24
c13 -15 18 -31 14 -47 -4 -15 -2 -24 5 -24 6 0 11 16 11 35 0 19 -4 35 -10 35
-5 0 -10 10 -10 23 0 13 -5 28 -11 34 -8 8 -7 25 6 64 15 43 16 71 11 165 -5
77 -4 114 3 114 6 0 8 7 5 15 -4 8 -1 15 5 15 6 0 11 -4 11 -9 0 -5 3 -17 7
-27 4 -11 3 -15 -4 -11 -7 5 -9 0 -6 -14 4 -12 11 -18 20 -15 8 3 11 1 8 -4
-3 -5 1 -47 10 -92 16 -83 13 -173 -7 -210 -5 -11 -5 -18 1 -18 17 0 34 72 30
134 -1 34 -3 98 -3 143 -1 44 -4 80 -7 78 -3 -2 -13 9 -23 25 -13 23 -14 29
-3 24 11 -4 13 1 10 20 -4 19 1 28 25 40 l30 15 6 -34 c4 -20 4 -39 1 -44 -3
-6 -1 -12 4 -15 5 -4 8 -22 7 -41 -2 -23 1 -35 10 -35 10 0 12 21 9 88 -3 57
-1 82 5 72 7 -11 10 -7 10 17 0 50 -35 84 -92 86 l-46 2 14 27 c8 15 18 30 24
33 5 3 10 17 10 30 0 23 28 94 41 105 3 3 9 18 13 33 5 20 11 27 21 23 9 -3
16 1 17 12 1 9 2 24 4 32 1 8 2 26 3 39 1 13 4 21 7 18 12 -12 65 73 59 94 -4
11 -3 19 2 18 20 -4 27 2 13 12 -11 8 -12 12 -3 15 8 3 10 18 8 37 -3 18 -3
27 1 20 4 -8 10 -7 23 5 12 11 15 22 10 33 -6 11 -3 21 6 29 8 7 15 21 15 31
0 11 4 19 10 19 5 0 7 6 4 14 -3 8 -1 17 5 21 19 11 12 23 -11 17 -21 -5 -22
-4 -9 11 9 12 10 17 2 17 -7 0 -9 5 -5 11 3 6 14 9 23 6 12 -3 17 2 17 17 -1
16 6 22 27 24 15 2 27 7 27 11 0 5 20 20 43 36 42 26 89 85 69 85 -6 0 -13 -7
-16 -15 -6 -16 -64 -45 -90 -45 -13 0 -14 4 -4 26 9 20 9 27 -1 33 -9 6 -10
11 -2 15 6 4 11 2 11 -3 0 -6 5 -11 11 -11 7 0 9 9 5 23 -3 14 1 32 9 43 20
26 19 43 -1 18 -15 -18 -15 -18 -9 9 6 31 -1 34 -33 11 -22 -15 -23 -15 -17
13 4 15 8 44 11 63 2 19 9 58 16 85 13 59 13 59 4 110 -6 33 -5 38 5 27 16
-15 19 -153 3 -173 -14 -17 -25 -59 -16 -59 18 1 61 60 44 60 -5 0 -6 17 -3
38 8 47 -16 202 -35 222 -10 10 -14 10 -14 2 0 -7 5 -12 10 -12 6 0 9 -15 9
-32 -1 -18 -3 -25 -6 -15 -2 9 -8 15 -12 13 -4 -3 -7 12 -6 32 1 20 -4 48 -12
60 -19 31 -29 127 -14 136 8 5 7 12 -4 23 -9 9 -14 21 -11 29 3 7 -4 36 -15
66 -10 29 -19 67 -19 85 0 17 -7 38 -15 46 -8 8 -11 17 -8 21 4 3 -5 6 -18 5
-13 0 -19 -3 -13 -5 14 -6 -36 -105 -51 -101 -5 2 -11 17 -12 34 -2 24 3 32
24 42 14 6 23 14 20 17 -3 3 -15 1 -26 -6 -19 -10 -21 -8 -21 18 0 43 -26 121
-48 146 -11 11 -19 28 -19 36 0 8 -10 36 -21 62 -12 26 -22 55 -22 66 0 10
-12 32 -26 48 -16 16 -22 30 -15 32 45 15 -43 45 -92 31 -17 -5 -32 -9 -33 -9
-1 0 -4 9 -7 20 -5 19 -27 29 -27 11 0 -4 -18 -4 -39 2 -38 10 -71 6 -147 -18
-18 -6 -24 0 -39 37 -9 24 -17 54 -17 68 0 14 -8 37 -19 50 l-19 25 -35 -40
c-19 -22 -35 -46 -35 -54 0 -10 -10 -12 -37 -7 -30 4 -33 4 -15 -4 22 -10 32
-35 10 -28 -11 4 -91 107 -104 135 -3 7 8 33 25 58 17 25 27 45 22 45 -13 0
-43 -39 -68 -90 -17 -36 -41 -52 -60 -41 -11 6 -13 11 -4 11 7 0 11 6 7 15 -3
8 2 19 12 24 9 6 13 10 7 10 -5 0 -19 -6 -29 -14 -11 -8 -29 -15 -39 -15 -17
0 -18 2 -6 17 10 11 10 14 2 9 -17 -10 -16 6 2 30 17 22 19 44 5 44 -5 0 -10
-6 -10 -14 0 -8 -10 -31 -21 -51 -17 -28 -26 -34 -43 -30 -15 4 -17 3 -8 -3
11 -8 11 -10 -1 -15 -8 -3 -18 -3 -21 1 -4 3 -27 5 -53 3 -40 -2 -45 0 -39 15
5 14 4 15 -9 4 -18 -15 -20 -1 -4 34 7 14 16 23 22 19 6 -4 7 -1 3 6 -9 14 21
51 41 51 19 0 16 -17 -7 -42 -22 -24 -26 -38 -10 -38 6 0 10 3 10 8 0 4 11 19
25 34 24 26 24 26 5 48 l-20 23 -42 -45z m-446 -45 c35 -16 56 -42 23 -30 -8
4 -17 2 -20 -2 -2 -5 -23 -3 -45 5 -22 8 -60 15 -85 16 -25 0 -42 5 -38 9 7 7
32 11 107 17 11 1 37 -6 58 -15z m-113 -42 c19 -12 2 -19 -42 -16 -21 2 -35
-1 -31 -6 3 -5 -1 -9 -10 -9 -8 0 -22 -3 -32 -7 -11 -4 -15 -2 -12 7 2 8 22
19 44 26 49 15 65 16 83 5z m539 -57 c6 -7 12 -19 12 -26 0 -7 -9 -2 -20 12
l-21 25 7 -26 c5 -26 -10 -48 -24 -34 -3 3 -1 9 5 13 8 5 9 13 3 22 -24 37 4
47 38 14z m548 -41 c3 -16 13 -44 22 -63 9 -19 17 -56 17 -83 2 -43 0 -47 -18
-41 -12 4 -17 2 -13 -4 3 -6 2 -13 -3 -16 -10 -6 -21 26 -21 62 0 13 -4 20
-10 17 -5 -3 -10 1 -10 9 0 9 5 16 10 16 7 0 8 23 4 65 -5 45 -3 65 4 65 7 0
14 -12 18 -27z m-37 -86 c-9 -7 -14 -18 -11 -26 3 -9 0 -11 -7 -6 -7 4 -10 13
-8 19 3 7 1 19 -3 27 -13 20 12 31 30 13 13 -14 13 -17 -1 -27z m-1509 15 c0
-7 -19 -20 -63 -40 -5 -3 -4 5 2 16 6 11 21 23 33 25 13 2 24 5 26 6 1 0 2 -3
2 -7z m350 -14 c0 -13 -23 -5 -28 10 -2 7 2 10 12 6 9 -3 16 -11 16 -16z
m-250 -8 c0 -5 -2 -10 -4 -10 -3 0 -8 5 -11 10 -3 6 -1 10 4 10 6 0 11 -4 11
-10z m-105 -20 c-28 -12 -37 -12 -30 0 3 6 16 10 28 9 21 0 21 -1 2 -9z m1795
0 c0 -5 7 -10 15 -10 20 0 19 -26 -1 -34 -40 -15 -88 1 -51 18 6 3 3 4 -8 3
-11 -2 -19 -9 -17 -15 1 -7 -3 -12 -9 -12 -5 0 -7 -4 -4 -10 3 -6 -4 -10 -17
-9 -13 0 -17 3 -10 6 20 8 13 25 -8 18 -11 -4 -20 -2 -20 4 0 6 -6 8 -14 5
-31 -12 -26 17 6 31 38 16 138 20 138 5z m115 -20 c-3 -5 2 -10 13 -10 10 0
27 -10 38 -21 10 -12 15 -20 9 -17 -5 2 -25 11 -42 18 -18 8 -33 18 -33 23 0
4 -5 5 -12 1 -7 -4 -8 -3 -4 4 4 7 14 12 22 12 8 0 12 -4 9 -10z m-1989 -13
c2 -2 1 -13 -3 -25 -6 -25 -23 -30 -23 -7 0 8 -4 15 -10 15 -13 0 -13 -6 0
-31 13 -23 3 -25 -22 -2 -19 17 -24 44 -11 57 7 7 61 1 69 -7z m1589 3 c3 -5
1 -10 -4 -10 -6 0 -11 5 -11 10 0 6 2 10 4 10 3 0 8 -4 11 -10z m-1555 -42 c0
-5 -4 -8 -10 -8 -5 0 -10 10 -10 23 0 18 2 19 10 7 5 -8 10 -18 10 -22z m1557
-15 c-3 -10 -5 -4 -5 12 0 17 2 24 5 18 2 -7 2 -21 0 -30z m248 17 c3 -5 2
-10 -4 -10 -5 0 -13 5 -16 10 -3 6 -2 10 4 10 5 0 13 -4 16 -10z m125 -10 c0
-5 -6 -10 -12 -10 -7 0 -24 -3 -38 -5 -22 -5 -21 -3 5 9 36 18 45 19 45 6z
m66 -32 c8 -16 13 -32 11 -34 -5 -5 -47 58 -47 70 0 14 21 -6 36 -36z m53 -2
c-3 -3 -11 5 -18 17 -13 21 -12 21 5 5 10 -10 16 -20 13 -22z m-1823 9 c-11
-8 -25 -15 -30 -15 -6 1 0 7 14 15 32 19 40 18 16 0z m1414 -40 c21 -25 1 -31
-22 -7 -18 18 -19 22 -6 22 8 0 21 -7 28 -15z m145 -15 c3 -5 13 -6 23 -3 12
4 14 3 7 -5 -11 -12 -55 -5 -55 9 0 12 17 11 25 -1z m-2129 -46 c-3 -8 1 -14
9 -14 8 0 15 -7 15 -15 0 -19 -5 -19 -35 1 -31 20 -34 55 -4 47 12 -3 18 -11
15 -19z m2130 2 c15 -12 16 -17 7 -27 -10 -10 -17 -9 -33 6 -32 29 -10 47 26
21z m-2076 -16 c0 -5 -5 -10 -11 -10 -5 0 -7 5 -4 10 3 6 8 10 11 10 2 0 4 -4
4 -10z m2137 -13 c11 4 14 3 9 -6 -4 -6 -16 -11 -25 -9 -10 2 -19 -1 -20 -7
-5 -19 -23 -35 -40 -34 -13 1 -13 2 2 6 9 2 17 12 17 20 0 9 8 25 18 36 14 16
17 17 20 4 2 -10 9 -14 19 -10z m-673 1 c-3 -4 -12 -8 -20 -8 -8 0 -13 4 -10
8 3 5 12 9 20 9 8 0 13 -4 10 -9z m-1524 -27 c0 -4 -11 -18 -25 -31 l-25 -23
0 30 c0 16 3 32 6 35 7 8 44 -2 44 -11z m2265 -2 c11 -17 -1 -21 -15 -4 -8 9
-8 15 -2 15 6 0 14 -5 17 -11z m65 1 c0 -5 -2 -10 -4 -10 -3 0 -8 5 -11 10 -3
6 -1 10 4 10 6 0 11 -4 11 -10z m-2143 -22 c-3 -8 -6 -5 -6 6 -1 11 2 17 5 13
3 -3 4 -12 1 -19z m2038 12 c3 -5 -1 -10 -9 -10 -9 0 -16 5 -16 10 0 6 4 10 9
10 6 0 13 -4 16 -10z m-1580 -10 c3 -5 2 -10 -4 -10 -5 0 -13 5 -16 10 -3 6
-2 10 4 10 5 0 13 -4 16 -10z m1595 -25 c-8 -9 -8 -15 0 -20 11 -7 4 -25 -10
-25 -5 0 -7 6 -4 14 6 17 -12 31 -21 16 -7 -11 -25 -4 -25 10 0 8 18 14 53 17
15 2 16 -1 7 -12z m247 -5 c4 -12 3 -13 -5 -1 -8 11 -11 10 -14 -5 -3 -17 -5
-16 -10 4 -5 18 -3 22 9 20 9 -2 18 -10 20 -18z m-192 0 c3 -5 1 -10 -4 -10
-6 0 -11 5 -11 10 0 6 2 10 4 10 3 0 8 -4 11 -10z m-2339 -57 c-10 -10 -19 5
-10 18 6 11 8 11 12 0 2 -7 1 -15 -2 -18z m2324 17 c0 -5 -2 -10 -4 -10 -3 0
-8 5 -11 10 -3 6 -1 10 4 10 6 0 11 -4 11 -10z m230 -41 c5 -24 4 -52 0 -63
-8 -18 -9 -17 -9 9 -1 17 -4 48 -8 70 -8 53 7 38 17 -16z m-2621 -2 c-82 -72
-88 -76 -93 -64 -2 7 -5 0 -5 -15 -1 -34 -21 -48 -21 -14 0 17 15 37 53 69 28
24 61 49 72 55 35 18 31 2 -6 -31z m135 18 c-4 -8 -11 -15 -16 -15 -6 0 -5 6
2 15 7 8 14 15 16 15 2 0 1 -7 -2 -15z m2250 -16 c-3 -5 -10 -7 -15 -3 -5 3
-7 10 -3 15 3 5 10 7 15 3 5 -3 7 -10 3 -15z m-45 -8 c9 -16 8 -18 -8 -14 -12
3 -17 11 -14 19 7 18 10 18 22 -5z m21 -51 c0 -5 -5 -10 -11 -10 -5 0 -7 5 -4
10 3 6 8 10 11 10 2 0 4 -4 4 -10z m-2516 -38 c-16 -33 -32 -48 -41 -38 -3 3
2 12 11 21 9 9 21 26 27 37 17 32 21 14 3 -20z m136 30 c0 -5 -11 -19 -25 -32
-28 -26 -33 -16 -9 18 15 22 34 30 34 14z m2749 -78 c-6 -7 -4 -16 6 -24 8 -7
15 -17 15 -22 0 -10 -68 42 -69 52 -1 3 9 21 21 40 l22 35 7 -35 c4 -19 3 -40
-2 -46z m-1579 63 c0 -2 -17 -19 -37 -38 -34 -31 -31 -21 6 24 12 15 31 23 31
14z m1270 -41 c0 -3 -4 -8 -10 -11 -5 -3 -10 -1 -10 4 0 6 5 11 10 11 6 0 10
-2 10 -4z m-2329 -67 c-6 -16 -10 -18 -10 -7 -1 22 12 55 16 42 2 -6 -1 -22
-6 -35z m2613 12 c12 -13 15 -28 11 -47 -6 -28 -6 -28 9 -10 12 15 16 16 16 5
0 -8 -10 -23 -22 -33 -18 -15 -20 -16 -15 -2 4 9 2 16 -3 16 -6 0 -10 15 -10
33 0 18 -5 38 -12 45 -7 7 -8 12 -2 12 6 0 19 -8 28 -19z m-1937 -13 c-3 -8
-6 -5 -6 6 -1 11 2 17 5 13 3 -3 4 -12 1 -19z m650 -10 c-3 -8 -6 -5 -6 6 -1
11 2 17 5 13 3 -3 4 -12 1 -19z m1259 -27 c2 -43 -8 -67 -25 -57 -15 10 -14
52 2 68 8 7 12 20 9 28 -3 8 -1 11 4 7 4 -4 9 -25 10 -46z m-2605 -22 c-9 -22
-10 -22 -10 -3 -1 11 2 24 6 27 12 12 14 0 4 -24z m579 27 c0 -2 -8 -10 -17
-17 -16 -13 -17 -12 -4 4 13 16 21 21 21 13z m2092 -80 c-1 -14 2 -26 8 -26 6
0 8 -4 5 -10 -11 -18 -45 24 -38 48 8 31 29 21 25 -12z m-3025 -8 c-3 -7 -5
-2 -5 12 0 14 2 19 5 13 2 -7 2 -19 0 -25z m-41 -66 c-12 -12 -18 8 -10 35 l8
28 4 -28 c2 -16 1 -31 -2 -35z m-89 -134 c-3 -8 -6 -5 -6 6 -1 11 2 17 5 13 3
-3 4 -12 1 -19z m23 -18 c0 -5 -5 -10 -11 -10 -5 0 -7 5 -4 10 3 6 8 10 11 10
2 0 4 -4 4 -10z m707 -42 c-3 -8 -6 -5 -6 6 -1 11 2 17 5 13 3 -3 4 -12 1 -19z
m2463 -20 c0 -6 -7 -5 -15 2 -8 7 -15 17 -15 22 0 6 7 5 15 -2 8 -7 15 -17 15
-22z m-1790 7 c-7 -8 -18 -15 -24 -15 -6 0 -2 7 8 15 25 19 32 19 16 0z
m-1438 -3 c-7 -5 -10 -22 -8 -40 4 -40 -10 -43 -16 -4 -5 38 0 52 20 52 12 0
14 -2 4 -8z m3258 -28 c0 -8 -4 -12 -10 -9 -5 3 -10 10 -10 16 0 5 5 9 10 9 6
0 10 -7 10 -16z m-3220 -4 c0 -5 -5 -10 -11 -10 -5 0 -7 5 -4 10 3 6 8 10 11
10 2 0 4 -4 4 -10z m550 -32 c15 -21 17 -28 6 -19 -16 13 -41 51 -33 51 2 0
14 -15 27 -32z m736 -54 c8 3 14 -1 14 -9 0 -19 -14 -19 -30 0 -11 13 -15 13
-21 3 -16 -24 -9 -28 41 -28 35 0 52 5 58 16 9 16 11 16 33 -1 l24 -17 -27 6
c-35 8 -37 -11 -3 -20 14 -3 41 -4 60 -2 22 2 34 0 32 -6 -2 -6 7 -16 21 -23
31 -16 39 -16 24 -1 -15 15 -16 31 0 22 8 -5 9 -1 4 12 -5 15 -4 16 5 7 6 -6
12 -23 12 -37 0 -14 3 -23 7 -21 9 6 70 -79 71 -98 0 -7 5 -1 11 13 9 21 12
22 15 8 3 -10 8 -18 13 -18 5 0 25 -13 43 -30 19 -16 44 -30 56 -30 32 0 111
20 151 38 19 8 49 16 65 17 17 1 39 5 50 9 11 5 15 4 9 -1 -9 -6 -8 -11 2 -21
13 -12 18 -8 15 11 -1 5 6 6 16 3 22 -7 48 8 39 22 -3 6 -2 13 4 17 5 3 10 -2
10 -12 0 -20 18 -43 33 -43 5 0 4 7 -3 15 -10 11 -9 18 3 30 16 16 32 21 23 7
-2 -4 2 -16 9 -26 11 -14 22 -17 47 -12 26 5 37 2 51 -14 9 -11 17 -23 17 -26
0 -16 62 -82 82 -87 19 -6 18 -3 -7 18 -34 28 -28 32 15 10 33 -17 36 -25 18
-44 -11 -11 -9 -12 9 -2 16 8 22 8 26 -4 4 -9 15 -12 31 -9 22 4 26 0 27 -18
l0 -23 9 23 c5 12 15 22 22 21 10 0 10 -2 1 -6 -18 -7 -16 -23 1 -23 8 0 18
-10 22 -22 4 -13 6 -23 4 -23 -2 0 2 -10 9 -22 17 -34 -2 -28 -33 9 -14 17
-26 28 -26 23 0 -5 15 -25 33 -44 19 -20 25 -31 15 -28 -50 19 -54 19 -33 2
11 -9 20 -20 20 -26 0 -5 6 -14 14 -18 18 -12 21 -73 3 -66 -10 4 -12 -6 -8
-40 3 -25 2 -45 -3 -45 -5 0 -5 -16 0 -37 4 -21 6 -39 3 -42 -2 -2 -4 1 -4 7
0 21 -18 13 -23 -10 -2 -13 -8 -32 -12 -43 -5 -16 -5 -17 4 -5 11 16 12 16 16
-15 15 -104 14 -151 -3 -172 l-17 -23 0 28 c0 15 4 33 8 39 4 7 3 22 -3 33 -6
11 -8 26 -4 32 5 7 3 8 -5 4 -7 -5 -10 -15 -7 -23 4 -11 0 -13 -17 -9 -13 4
-10 0 8 -8 24 -12 27 -16 13 -21 -10 -4 -29 2 -47 16 -33 24 -38 38 -19 57 15
15 7 24 -11 12 -8 -4 -14 -22 -14 -39 0 -30 -1 -31 -23 -16 -43 28 -35 15 18
-28 31 -25 53 -52 54 -64 2 -28 12 -43 31 -43 10 0 13 -6 9 -16 -6 -16 2 -30
49 -76 24 -25 29 -38 30 -81 0 -29 6 -61 13 -72 12 -18 13 -14 8 24 -2 25 -1
39 3 32 6 -9 11 -10 15 -3 3 6 2 13 -4 17 -12 7 -14 75 -2 75 5 0 17 -10 28
-22 17 -19 17 -21 2 -15 -10 4 -18 2 -18 -3 0 -9 15 -14 33 -11 5 1 11 -8 14
-19 7 -27 23 -15 23 18 0 39 17 14 25 -35 4 -26 2 -43 -4 -43 -5 0 -9 -23 -9
-52 1 -43 -1 -53 -14 -50 -10 1 -15 -4 -14 -15 0 -10 -4 -17 -11 -16 -7 2 -10
-4 -6 -13 3 -9 9 -12 12 -7 9 12 44 16 36 4 -3 -6 -1 -11 5 -11 6 0 8 -5 5
-10 -5 -7 -11 -8 -19 -1 -6 5 -17 6 -24 2 -10 -6 -10 -11 2 -21 9 -7 13 -16
10 -21 -3 -5 0 -18 6 -30 10 -18 9 -20 -7 -15 -17 5 -19 2 -15 -24 2 -17 8
-33 14 -36 5 -3 6 6 3 23 l-6 28 15 -25 c10 -18 11 -27 3 -32 -9 -5 -9 -15 0
-38 6 -16 7 -30 2 -30 -5 0 -9 -4 -9 -10 0 -5 6 -10 14 -10 17 0 49 -30 41
-38 -3 -3 -12 3 -20 14 -13 18 -14 16 -15 -21 -1 -31 -3 -35 -9 -20 -5 11 -7
23 -4 27 5 10 -15 48 -26 48 -13 0 -6 -47 9 -65 19 -23 3 -31 -20 -10 -12 11
-20 13 -20 6 0 -6 7 -14 15 -17 17 -7 21 -44 4 -44 -8 0 -8 -4 -1 -12 7 -9 6
-25 -5 -53 -19 -53 -21 -71 -6 -68 7 2 10 -4 7 -12 -4 -8 -11 -12 -17 -8 -6 3
-7 1 -3 -6 4 -6 0 -18 -8 -27 -9 -8 -16 -21 -16 -27 0 -7 12 1 25 16 14 15 25
25 25 21 0 -14 -59 -72 -66 -66 -5 4 -2 -1 5 -10 14 -18 37 -26 27 -9 -3 5 1
11 9 15 19 7 19 -3 0 -28 -13 -17 -17 -17 -32 -5 -14 12 -16 12 -8 0 6 -11 4
-13 -8 -8 -20 7 -20 6 -7 -27 6 -16 6 -26 0 -26 -5 0 -7 -14 -3 -31 l6 -31
-27 17 c-29 19 -34 11 -9 -17 10 -12 12 -18 4 -18 -7 0 -9 -5 -6 -10 3 -6 -1
-13 -9 -16 -9 -3 -16 -14 -16 -24 0 -10 -7 -23 -15 -30 -8 -6 -14 -15 -13 -18
3 -31 -4 -72 -12 -67 -6 4 -8 10 -6 14 3 4 1 13 -5 21 -7 12 -9 11 -9 -5 0
-11 7 -30 15 -41 8 -12 11 -24 8 -28 -11 -11 -43 26 -43 50 0 30 -20 42 -21
12 -2 -40 3 -63 15 -70 8 -6 7 -8 -3 -8 -7 0 -11 -6 -7 -15 3 -8 1 -15 -4 -15
-5 0 -9 -10 -7 -21 1 -12 -4 -24 -12 -27 -11 -4 -13 6 -9 48 6 55 -6 120 -22
120 -5 0 -5 -12 -1 -27 8 -29 7 -101 -2 -109 -2 -3 -8 16 -12 41 -3 26 -9 45
-12 42 -2 -3 -6 -43 -8 -89 -2 -46 -8 -103 -13 -128 -8 -44 -9 -44 -20 -20
l-12 25 2 -25 c1 -14 -1 -31 -6 -38 -4 -7 -5 -19 -2 -27 3 -8 1 -15 -5 -15 -7
0 -9 12 -7 29 4 29 4 29 -18 13 -12 -10 -30 -29 -39 -44 -15 -26 -15 -30 1
-63 13 -27 14 -39 5 -48 -8 -8 -11 -8 -11 1 0 7 -8 20 -19 31 -18 18 -18 18
-18 -5 0 -13 2 -22 6 -20 4 3 7 -4 7 -14 0 -14 -4 -16 -12 -9 -9 7 -14 5 -17
-8 -3 -10 -5 -1 -6 19 -1 27 -7 40 -22 48 -13 8 -18 17 -14 28 5 13 4 14 -6 5
-10 -10 -9 -16 2 -29 8 -9 14 -36 14 -59 1 -41 0 -41 -18 -21 -17 20 -17 20
-3 -16 8 -21 12 -38 7 -38 -8 0 -35 67 -37 95 -1 11 2 22 6 25 4 3 5 21 2 40
-6 35 -6 34 -17 -20 -10 -44 -9 -59 2 -77 18 -31 16 -56 -6 -72 -10 -7 -17
-23 -16 -36 2 -18 -1 -22 -15 -18 -27 7 -32 31 -10 43 11 6 20 18 20 27 0 15
-1 15 -12 1 -22 -27 -55 -32 -63 -8 -3 11 -10 20 -15 20 -10 0 -8 -19 4 -38
16 -26 -3 -23 -20 3 -13 20 -19 23 -26 13 -6 -10 -10 -10 -18 2 -8 12 -9 9 -6
-10 2 -14 7 -33 11 -42 10 -26 -8 -22 -24 4 -14 22 -14 22 -22 3 -6 -15 -8
-16 -8 -4 -1 9 -7 21 -14 27 -9 8 -15 4 -23 -13 -9 -19 -9 -22 2 -18 10 4 12
0 8 -11 -5 -12 -10 -13 -25 -5 -15 8 -17 14 -9 29 13 24 13 30 0 30 -5 0 -10
-8 -10 -17 -1 -14 -4 -12 -15 7 -15 25 -15 24 -12 -17 1 -23 -2 -42 -8 -42 -5
0 -9 10 -7 22 1 16 0 18 -7 8 -7 -11 -12 -8 -24 15 -19 37 -49 62 -66 56 -8
-3 -12 1 -8 9 2 8 9 13 15 12 5 -1 12 12 16 29 5 25 9 28 20 19 12 -10 13 -8
9 8 -3 14 0 23 11 27 10 4 16 18 16 36 0 17 -4 27 -10 23 -6 -4 -9 -12 -8 -18
1 -7 -3 -22 -10 -35 -12 -20 -15 -21 -28 -7 -14 13 -14 17 0 31 15 14 20 28
17 47 0 4 2 6 6 5 5 0 16 2 25 6 14 6 16 16 12 49 -3 23 -9 46 -15 52 -6 6 -7
-8 -3 -39 5 -34 4 -47 -4 -43 -5 4 -12 1 -15 -5 -2 -7 -8 -10 -12 -5 -5 4 -3
13 3 19 7 7 12 27 12 45 0 29 -3 33 -25 33 -14 0 -25 5 -25 11 0 6 -13 8 -35
5 -20 -4 -35 -2 -35 4 0 17 -29 11 -42 -10 -9 -14 -19 -18 -38 -13 -14 3 -22
2 -18 -2 4 -5 3 -14 -3 -22 -9 -9 -8 -13 0 -13 6 0 11 -7 11 -15 0 -8 8 -15
18 -15 14 -1 12 -5 -10 -25 -16 -13 -24 -26 -19 -29 5 -3 12 1 15 10 10 26 39
-4 32 -32 -5 -19 -3 -22 11 -17 14 6 14 3 -3 -20 -10 -14 -25 -27 -31 -27 -16
0 -41 -38 -53 -79 -7 -24 -6 -31 3 -28 6 2 14 18 18 35 7 37 27 64 42 59 12
-4 42 23 49 43 2 7 12 14 21 16 13 2 16 -3 12 -19 -3 -12 1 -31 10 -42 15 -19
15 -19 9 6 -3 17 -1 30 7 35 9 5 10 2 6 -9 -3 -10 -2 -17 3 -17 12 0 9 -62 -4
-76 -6 -6 -18 -13 -26 -17 -10 -3 -6 -6 10 -7 14 -1 29 -2 34 -1 5 1 6 -5 2
-14 -3 -9 1 -23 9 -31 17 -18 20 -34 5 -34 -5 0 -10 5 -10 11 0 6 -7 3 -16 -5
-8 -9 -13 -20 -10 -25 3 -5 -1 -11 -9 -15 -8 -3 -15 -11 -15 -18 0 -10 2 -10
9 1 6 9 9 5 9 -13 0 -14 -5 -26 -10 -26 -5 0 -6 5 -2 12 5 7 2 9 -7 6 -10 -4
-14 3 -15 23 -1 18 5 30 15 33 9 3 5 4 -9 3 -20 -2 -25 -7 -25 -29 0 -36 -19
-37 -23 -1 -2 15 -10 32 -19 38 -12 9 -11 13 6 29 12 11 21 24 21 30 0 6 -8 0
-17 -13 -16 -23 -17 -23 -24 -5 -7 18 -8 18 -8 -2 -1 -28 -10 -35 -32 -23 -19
10 -25 2 -19 -26 1 -5 -4 -5 -11 2 -8 8 -9 16 -2 25 19 25 23 47 7 41 -7 -3
-14 -13 -14 -22 0 -14 -2 -14 -10 -1 -5 9 -5 19 2 27 7 9 7 13 -2 13 -7 0 -10
7 -5 17 4 13 1 12 -15 -4 -40 -43 -49 -25 -11 21 14 17 11 16 -16 -3 -35 -24
-39 -22 -22 12 11 20 10 20 -16 -3 -16 -14 -25 -19 -21 -12 8 14 -10 17 -19 2
-3 -5 -11 -10 -16 -10 -6 0 -8 4 -4 9 3 5 1 12 -5 16 -5 3 -10 0 -10 -8 0 -8
-6 -17 -12 -20 -22 -8 -18 46 5 72 15 16 17 22 7 19 -15 -5 -33 -34 -45 -73
-5 -16 -8 -17 -15 -5 -7 11 -12 11 -23 2 -25 -21 -29 13 -4 45 18 24 19 26 1
12 -10 -9 -29 -19 -41 -22 -22 -5 -22 -4 4 32 l27 36 -26 -24 c-27 -23 -27
-23 -21 -1 3 12 16 27 29 32 22 10 33 28 18 28 -14 0 -82 -69 -71 -73 6 -2 1
-6 -11 -9 -31 -8 -28 3 13 42 19 19 35 39 35 46 0 15 -28 26 -35 14 -4 -6 -1
-10 4 -10 6 0 11 -6 11 -13 0 -15 -37 -40 -49 -32 -5 2 -8 -1 -7 -8 0 -6 -3
-12 -9 -13 -5 0 -9 7 -7 17 2 9 -3 21 -9 25 -9 5 -10 2 -6 -9 3 -8 0 -18 -8
-21 -17 -6 -5 39 20 78 13 20 23 25 39 20 16 -5 18 -4 9 6 -6 7 -9 20 -5 29 4
11 -6 7 -30 -11 -26 -20 -38 -24 -42 -15 -3 6 -3 0 -1 -14 2 -17 -2 -26 -11
-26 -8 0 -14 5 -14 11 0 6 -5 4 -10 -4 -5 -8 -10 -10 -10 -4 0 5 5 15 11 21 9
9 7 16 -6 30 -13 13 -20 14 -23 5 -7 -22 -19 -12 -14 13 2 14 8 22 13 19 12
-7 0 129 -12 141 -7 7 -10 7 -9 0 4 -19 0 -38 -6 -32 -8 7 -44 -36 -44 -52 0
-6 -4 -11 -9 -11 -5 0 -7 -8 -4 -19 3 -10 -2 -21 -10 -24 -16 -6 -31 39 -16
49 5 3 9 14 9 24 0 11 8 20 22 22 12 2 24 9 26 17 3 10 0 12 -11 8 -19 -7 -13
18 11 46 29 33 -1 17 -36 -21 l-36 -37 29 40 c16 22 35 46 42 53 7 7 13 16 13
20 0 3 -5 1 -12 -6 -17 -17 -33 -15 -18 3 6 8 10 20 7 27 -4 9 -6 8 -6 -3 -1
-9 -7 -16 -14 -16 -14 0 -16 24 -3 45 4 7 2 12 -4 12 -7 0 -10 6 -7 13 6 17
-12 47 -19 31 -3 -6 -12 -20 -20 -30 -14 -18 -15 -18 -9 6 5 19 4 22 -4 10
-11 -16 -14 -9 -11 29 1 14 -2 21 -9 17 -6 -4 -11 -18 -11 -32 0 -13 -4 -24
-9 -24 -17 0 -19 25 -3 43 24 27 5 33 -23 7 -14 -13 -25 -19 -25 -12 0 6 12
20 26 31 l26 21 -22 32 c-20 29 -21 25 -5 -15 3 -7 -2 -21 -12 -29 -17 -16
-18 -14 -16 31 1 26 7 60 12 74 7 17 7 27 1 27 -6 0 -10 11 -10 25 0 14 -5 25
-11 25 -6 0 -9 -7 -5 -15 3 -8 1 -15 -4 -15 -6 0 -10 7 -10 15 0 8 -6 15 -12
15 -7 0 -13 -11 -13 -25 0 -14 3 -25 8 -25 12 0 8 -38 -5 -46 -8 -5 -9 0 -6
14 4 12 2 24 -2 27 -5 3 -7 18 -5 33 2 15 4 30 4 34 1 4 8 5 16 2 11 -5 13 -2
9 10 -3 9 -1 22 5 30 6 7 8 16 5 19 -4 3 -14 -3 -24 -15 -23 -29 -50 -18 -50
22 0 16 -5 30 -11 30 -6 0 -7 5 -2 13 4 6 8 14 8 17 0 3 6 14 12 25 9 16 11 8
10 -44 -2 -67 16 -97 29 -47 3 14 12 26 20 26 8 0 14 2 14 4 0 2 3 11 6 20 3
9 1 16 -6 16 -6 0 -8 -4 -5 -10 3 -5 0 -7 -7 -5 -12 5 -38 50 -38 67 0 5 -9
27 -19 51 -37 82 -52 177 -27 177 5 0 -3 14 -19 30 -19 20 -24 30 -14 30 10 1
9 5 -5 15 -11 8 -17 18 -13 21 3 4 13 -1 22 -10 22 -22 28 -20 15 4 -6 11 -8
25 -5 30 3 5 -3 18 -15 30 -11 11 -16 20 -11 20 5 0 11 9 14 20 5 19 -12 24
-24 7 -3 -5 -6 5 -5 22 1 22 6 31 18 31 12 0 15 5 11 17 -5 12 -3 14 8 8 11
-6 12 -5 2 6 -18 19 -17 50 2 43 8 -4 15 -1 15 5 0 6 -6 11 -12 11 -7 1 -2 10
11 21 13 11 30 18 37 15 7 -3 10 2 7 15 -3 10 -10 19 -16 19 -12 0 23 29 36
30 4 0 7 -7 7 -15 0 -9 -6 -12 -17 -9 -14 4 -13 2 2 -7 28 -17 35 -31 29 -53
-5 -14 -3 -16 7 -11 8 5 6 -1 -3 -12 -19 -21 -24 -43 -9 -43 5 0 13 10 16 21
6 17 9 19 16 8 5 -8 6 -21 4 -29 -3 -8 4 -21 15 -28 12 -7 20 -8 20 -2 0 5 4
10 10 10 5 0 9 -3 9 -7 -4 -22 3 -24 21 -8 11 10 20 14 20 9 0 -5 4 -2 10 6 7
12 12 12 29 -4 12 -11 21 -14 21 -8 0 7 7 12 16 12 8 0 13 -3 11 -7 -3 -5 19
-8 49 -8 30 0 54 3 54 6 0 3 -18 12 -41 19 -50 17 -77 50 -53 63 11 6 19 5 24
-4 7 -10 14 -10 35 -1 14 7 24 9 22 5 -3 -5 1 -14 9 -20 7 -7 15 -9 18 -5 6
10 36 9 52 0 5 -4 15 2 22 12 9 14 8 19 -3 24 -8 3 -15 1 -15 -4 0 -16 -17
-12 -24 5 -4 12 3 14 42 12 51 -3 76 -13 67 -28 -8 -12 16 -11 35 1 9 6 17 5
21 -1 4 -7 12 -4 23 6 9 9 16 12 16 6 0 -7 6 -8 18 -2 51 26 93 40 86 30 -5
-8 1 -10 19 -7 20 4 24 2 20 -11 -4 -9 -12 -23 -19 -31 -7 -8 -14 -22 -16 -30
-2 -8 -14 -30 -27 -49 -14 -19 -19 -31 -13 -27 7 4 12 1 12 -8 0 -8 -4 -18
-10 -21 -12 -8 -52 -97 -45 -103 2 -3 9 6 14 19 7 17 10 19 10 7 2 -31 33 -39
59 -16 19 19 22 19 22 4 0 -9 -4 -14 -10 -11 -5 3 -10 1 -10 -4 0 -14 17 -14
25 -1 11 18 21 11 23 -16 1 -14 -5 -33 -14 -41 -71 -72 -129 -191 -118 -242 7
-29 32 -61 47 -61 5 0 18 -10 29 -22 19 -23 19 -23 -4 -40 -13 -10 -30 -24
-38 -30 -8 -7 -19 -12 -26 -10 -6 1 -17 -9 -24 -23 -7 -14 -16 -23 -18 -20 -3
3 -11 0 -19 -6 -19 -16 -16 1 5 25 17 21 17 21 -4 3 -11 -9 -24 -14 -28 -10
-4 4 -4 -1 0 -11 6 -15 3 -17 -14 -12 -11 4 -23 2 -27 -4 -3 -5 -14 -10 -24
-10 -9 0 -26 -7 -37 -15 -18 -13 -17 -14 14 -10 31 3 43 -7 22 -20 -5 -3 -10
-1 -10 6 0 7 -7 4 -15 -7 -17 -23 -19 -38 -4 -28 7 4 10 1 7 -6 -9 -29 -28
-21 -28 12 l-1 33 -15 -29 c-13 -24 -14 -30 -2 -37 10 -7 6 -14 -16 -34 -23
-20 -27 -28 -18 -37 9 -9 12 -9 12 0 0 7 5 12 10 12 6 0 5 -8 -2 -20 -7 -11
-14 -16 -16 -11 -2 6 -10 7 -19 4 -12 -5 -14 -3 -8 8 4 8 4 11 0 6 -11 -10
-14 -48 -3 -41 4 3 8 0 8 -6 0 -6 4 -8 10 -5 6 3 7 -1 4 -9 -3 -9 -10 -13 -15
-10 -5 3 -6 -2 -3 -11 4 -10 -1 -22 -15 -31 -11 -8 -21 -21 -21 -27 0 -7 7 -4
15 7 7 10 18 15 24 12 5 -4 13 -1 16 5 4 5 14 8 22 5 26 -10 62 4 56 22 -5 11
-2 14 10 9 9 -3 23 1 32 9 13 14 15 14 15 -1 0 -8 -10 -20 -22 -26 -22 -9 -22
-9 4 -6 21 3 25 1 20 -12 -5 -13 -2 -13 22 3 16 10 26 13 22 8 -3 -6 -2 -13 2
-16 5 -3 8 -17 7 -31 -3 -26 9 -42 20 -25 4 6 13 5 25 -3 23 -14 27 -29 5 -21
-8 4 -15 1 -15 -6 0 -6 4 -9 10 -5 5 3 19 -4 31 -16 l22 -22 -7 28 c-7 26 -6
27 11 14 10 -8 23 -19 28 -25 6 -6 26 -14 45 -18 25 -4 31 -3 20 4 -18 12 -13
13 75 14 39 1 72 -2 75 -6 3 -3 14 1 25 9 20 15 20 15 0 9 -31 -9 -48 8 -47
48 1 21 -3 35 -10 33 -6 -1 -12 3 -15 9 -4 13 -5 12 118 17 88 3 96 1 91 -15
-2 -10 1 -18 7 -18 7 0 10 4 7 9 -4 5 -4 16 -1 23 5 11 16 13 51 8 24 -4 48
-10 52 -15 4 -4 -5 -5 -20 -1 -30 7 -49 -11 -27 -25 12 -7 11 -9 -1 -9 -12 0
-13 -2 -1 -9 8 -5 11 -16 6 -31 -5 -16 -4 -21 6 -18 8 3 20 -2 28 -10 13 -12
16 -12 26 2 16 21 26 20 18 -1 -5 -15 -4 -15 9 1 9 11 23 17 34 14 28 -7 96
32 119 70 20 32 34 35 76 18 12 -5 18 0 23 19 5 21 10 24 20 16 7 -6 21 -9 30
-5 9 3 23 1 30 -5 11 -9 16 -9 22 0 4 7 2 15 -4 17 -7 2 -10 7 -7 12 8 13 -66
131 -78 123 -6 -3 -7 -1 -3 5 7 12 -31 62 -48 62 -5 0 -23 12 -39 28 l-30 27
18 -27 c10 -17 13 -28 6 -28 -6 0 -11 6 -11 14 0 7 -6 19 -14 26 -8 6 -13 17
-10 24 3 7 -3 19 -12 27 -15 13 -16 11 -9 -11 7 -25 7 -25 -26 5 -19 17 -35
33 -37 38 -2 4 -8 7 -14 7 -6 0 -3 -11 6 -24 15 -23 15 -25 -4 -23 -11 1 -20
7 -20 14 0 7 -4 13 -9 13 -5 0 -12 9 -16 19 -4 12 -12 18 -20 14 -8 -3 -12 -9
-9 -14 3 -5 1 -9 -4 -9 -5 0 -14 12 -21 26 -8 19 -17 25 -31 21 -11 -3 -20 -1
-20 5 0 5 -5 6 -11 3 -6 -4 -8 -13 -5 -21 8 -22 -14 -28 -29 -8 -13 18 -15 17
-21 -13 -3 -18 -10 -33 -15 -33 -12 0 -11 -47 2 -94 7 -27 13 -35 19 -26 7 11
12 10 25 -4 10 -10 28 -24 41 -33 27 -17 33 -36 9 -27 -18 7 -20 -7 -3 -24 17
-17 19 -42 2 -35 -8 3 -11 10 -8 15 4 6 -3 5 -15 -2 -12 -6 -19 -15 -17 -19 3
-4 -1 -8 -9 -8 -8 0 -15 7 -15 16 0 9 -5 23 -11 31 -9 13 -10 13 -6 -2 3 -9
-1 -19 -9 -22 -13 -5 -14 0 -9 27 5 24 4 28 -4 17 -6 -8 -11 -26 -12 -40 -1
-22 -2 -23 -7 -5 -8 24 -51 33 -63 13 -7 -10 -9 -9 -9 5 0 9 5 17 10 17 6 0
10 7 10 15 0 8 -4 15 -10 15 -5 0 -10 -5 -10 -11 0 -5 -4 -7 -10 -4 -6 3 -7
-1 -4 -9 3 -9 1 -16 -6 -16 -6 0 -8 -5 -4 -12 5 -9 2 -9 -9 1 -15 12 -21 9
-18 -11 0 -4 -8 -6 -19 -5 -10 1 -17 3 -15 6 3 2 -3 14 -12 25 -17 19 -17 20
-1 7 20 -15 48 -8 48 11 0 9 -3 9 -10 -2 -5 -8 -13 -11 -17 -6 -10 10 27 37
40 29 6 -4 7 -1 2 7 -4 7 -4 15 1 19 13 9 46 84 34 76 -13 -8 -13 18 1 32 6 6
7 22 3 38 -7 26 -8 27 -20 10 -21 -28 -28 -10 -9 22 14 24 23 28 58 27 46 0
97 13 97 26 0 18 74 53 116 55 48 1 58 -10 20 -24 -13 -5 -26 -17 -30 -26 -7
-18 -5 -18 42 10 28 18 31 24 26 50 -4 17 -7 31 -9 33 -5 6 -111 -21 -125 -32
-37 -29 -66 -36 -121 -28 -58 9 -89 27 -81 50 2 6 -4 15 -12 18 -26 10 -76 61
-76 77 0 9 8 17 17 19 15 3 15 4 0 20 -16 16 -16 18 3 28 11 6 18 15 15 20 -3
5 2 28 10 52 25 68 27 88 11 94 -11 4 -14 15 -10 37 3 18 2 27 -3 21 -4 -6
-17 -14 -28 -18 -16 -6 -17 -9 -5 -16 13 -9 12 -11 -6 -9 -3 0 -14 -9 -23 -20
-23 -26 -31 -26 -31 -1 0 13 5 17 14 14 11 -4 13 0 9 15 -3 12 -9 21 -15 21
-5 0 3 17 17 37 14 21 25 45 25 54 0 9 7 20 16 23 12 4 14 13 10 32 -4 16 -1
30 9 41 13 13 14 18 3 24 -11 7 -10 11 2 19 13 8 13 11 1 19 -8 5 -10 14 -6
22 6 9 3 11 -8 6 -10 -3 -17 -2 -17 2 0 5 6 11 12 13 8 3 1 17 -20 37 -17 18
-32 37 -32 42 0 6 -5 7 -12 3 -8 -5 -9 -2 -5 10 6 14 3 16 -16 11 -19 -5 -20
-4 -4 5 9 6 17 15 17 19 0 14 -116 132 -123 125 -4 -4 -15 -1 -24 7 -38 30
-62 37 -146 44 -83 7 -87 9 -81 28 6 20 6 20 -10 4 -16 -15 -19 -15 -58 5 -35
19 -46 20 -82 10 -36 -9 -39 -9 -22 4 21 15 34 17 80 14 17 -1 26 2 22 8 -3 6
-14 9 -24 7 -9 -1 -23 3 -31 9 -11 8 -13 8 -7 -1 4 -9 1 -13 -10 -13 -13 0
-14 3 -5 13 6 8 8 16 6 19 -3 3 8 4 25 2 21 -3 30 1 30 10 0 10 -9 13 -32 10
l-33 -4 30 14 30 14 -30 1 c-40 2 -59 15 -52 36 4 9 11 13 17 10 5 -3 10 1 10
9 0 20 -5 20 -25 0 -10 -10 -22 -13 -33 -8 -17 7 -26 10 -39 13 -5 1 -1 6 7
11 13 9 13 11 0 21 -13 9 -13 10 2 6 9 -3 23 2 32 12 23 25 20 38 -4 16 -21
-19 -23 -16 -21 25 l1 25 -14 -25 -15 -25 -1 24 c0 19 -3 21 -14 12 -12 -10
-13 -8 -9 9 3 12 11 19 18 16 7 -2 15 4 18 15 6 22 -3 24 -23 7 -8 -7 -4 0 10
16 25 28 25 28 3 22 -18 -6 -22 -4 -17 8 3 8 -3 19 -15 26 -21 11 -31 -3 -11
-15 7 -4 7 -13 0 -26 -6 -11 -8 -25 -4 -31 4 -7 3 -8 -4 -4 -7 4 -12 3 -12 -2
0 -6 -7 -12 -15 -15 -11 -5 -11 0 3 26 19 35 18 82 -1 71 -7 -4 -8 -3 -4 2 5
5 13 10 18 10 5 1 14 2 20 3 5 0 7 5 4 11 -3 5 8 30 24 54 34 49 41 74 11 38
-11 -13 -24 -21 -29 -18 -5 4 -12 0 -14 -6 -3 -7 -4 1 -4 17 1 17 6 33 12 37
5 4 2 10 -8 14 -13 5 -15 10 -7 19 7 8 7 21 1 36 -10 24 -13 21 -15 -15 -1
-23 -21 -32 -29 -13 -3 8 6 26 19 41 14 14 22 31 19 37 -4 5 5 21 20 35 19 18
33 22 51 18 14 -4 24 -2 23 2 -3 19 1 34 10 34 5 0 7 -10 4 -22 -4 -18 -2 -20
6 -8 5 8 13 11 17 7 4 -4 14 -1 22 6 13 10 14 9 8 -9 -6 -19 -3 -21 19 -16 14
2 23 7 20 10 -8 8 26 42 36 36 5 -2 26 4 48 14 42 21 59 18 40 -5 -7 -7 -7
-13 -2 -13 5 0 15 11 21 25 8 17 8 25 1 25 -6 0 -7 5 -4 10 5 8 11 7 21 -1 7
-6 12 -15 9 -19 -6 -10 37 -6 54 4 7 5 16 19 22 33 5 13 13 21 19 18 7 -4 7
-13 0 -26 -6 -11 -7 -19 -2 -19 14 0 23 42 12 55 -6 7 -7 15 -3 18 13 13 21 6
27 -24 l6 -30 32 37 c26 30 34 34 36 20 2 -10 10 -15 18 -12z m1280 -2 c-18
-16 -18 -16 -6 6 6 13 14 21 18 18 3 -4 -2 -14 -12 -24z m-2590 -29 c-8 -9
-35 10 -39 29 -5 19 -5 19 19 -3 13 -12 22 -24 20 -26z m29 37 c3 -5 2 -10 -4
-10 -5 0 -13 5 -16 10 -3 6 -2 10 4 10 5 0 13 -4 16 -10z m1207 -22 c-7 -7
-12 -8 -12 -2 0 6 3 14 7 17 3 4 9 5 12 2 2 -3 -1 -11 -7 -17z m-92 -39 c0 -5
-7 -9 -15 -9 -9 0 -12 6 -9 15 6 15 24 11 24 -6z m-1093 -25 c-3 -3 -12 -4
-19 -1 -8 3 -5 6 6 6 11 1 17 -2 13 -5z m18 -74 c2 -28 0 -40 -8 -37 -14 4
-21 51 -13 74 10 24 18 9 21 -37z m860 40 c-3 -5 -14 -10 -23 -10 -15 0 -15 2
-2 10 20 13 33 13 25 0z m-135 -10 c0 -5 -2 -10 -4 -10 -3 0 -8 5 -11 10 -3 6
-1 10 4 10 6 0 11 -4 11 -10z m1810 0 c0 -5 -5 -10 -11 -10 -5 0 -7 5 -4 10 3
6 8 10 11 10 2 0 4 -4 4 -10z m-830 -41 l25 -21 -28 16 c-15 9 -32 14 -37 11
-6 -3 -10 -1 -10 4 0 17 23 12 50 -10z m470 -13 c0 -11 -19 -15 -25 -6 -3 5 1
10 9 10 9 0 16 -2 16 -4z m-479 -34 c-7 -2 -18 1 -23 6 -8 8 -4 9 13 5 13 -4
18 -8 10 -11z m-1073 -12 c-7 -11 -15 -15 -17 -9 -2 6 3 15 10 20 20 12 21 11
7 -11z m-41 -22 c-3 -8 -6 -5 -6 6 -1 11 2 17 5 13 3 -3 4 -12 1 -19z m-4 -33
c-3 -9 -8 -14 -10 -11 -3 3 -2 9 2 15 9 16 15 13 8 -4z m57 -36 c0 -4 -11 -6
-25 -6 -13 0 -22 3 -20 8 6 9 45 8 45 -2z m15 -29 c4 -6 3 -10 -2 -9 -22 4
-35 -2 -30 -15 4 -10 0 -12 -14 -9 -13 4 -21 -2 -29 -21 -11 -29 -21 -35 -13
-8 8 31 36 56 80 71 1 1 5 -4 8 -9z m2575 -20 c-8 -5 -19 -10 -25 -10 -5 0 -3
5 5 10 8 5 20 10 25 10 6 0 3 -5 -5 -10z m-2600 -61 c0 -5 -4 -9 -10 -9 -5 0
-10 7 -10 16 0 8 5 12 10 9 6 -3 10 -10 10 -16z m1918 -4 c-3 -3 -9 2 -12 12
-6 14 -5 15 5 6 7 -7 10 -15 7 -18z m-1768 -310 c0 -8 -4 -15 -9 -15 -5 0 -11
7 -15 15 -3 9 0 15 9 15 8 0 15 -7 15 -15z m-45 -15 c3 -5 1 -10 -4 -10 -6 0
-11 5 -11 10 0 6 2 10 4 10 3 0 8 -4 11 -10z m69 -25 c-4 -8 -10 -15 -15 -15
-4 0 -6 7 -3 15 4 8 10 15 15 15 4 0 6 -7 3 -15z m2211 -44 c3 -5 1 -12 -5
-16 -5 -3 -10 1 -10 9 0 18 6 21 15 7z m-2185 -61 c-8 -5 -22 -10 -30 -10 -13
0 -13 1 0 10 8 5 22 10 30 10 13 0 13 -1 0 -10z m1708 -31 c-3 -8 -7 -3 -11
10 -4 17 -3 21 5 13 5 -5 8 -16 6 -23z m23 -42 c-14 -14 -14 -30 -1 -22 6 3
10 1 10 -4 0 -14 -13 -14 -27 0 -15 15 -4 49 14 42 10 -4 11 -9 4 -16z m-1841
-2 c-7 -8 -18 -15 -24 -15 -6 0 -2 7 8 15 25 19 32 19 16 0z m559 -75 c37 -44
40 -50 21 -50 -12 0 -19 4 -16 9 3 5 -1 14 -9 21 -13 11 -14 10 -9 -6 5 -16 4
-16 -5 -4 -6 8 -8 22 -5 32 3 10 -4 23 -18 32 -12 9 -18 16 -12 16 6 0 30 -22
53 -50z m-284 14 c27 -4 68 -12 90 -20 24 -8 42 -9 45 -4 4 6 14 4 26 -5 17
-13 17 -14 2 -15 -18 0 -26 -20 -9 -20 5 0 11 -9 14 -21 5 -20 5 -20 -15 -2
-15 13 -22 15 -25 6 -3 -7 -9 -13 -14 -13 -6 0 -7 5 -3 11 4 7 3 10 -2 7 -58
-28 -89 -38 -102 -35 -12 3 -10 5 6 6 12 0 22 5 22 11 0 12 -52 -7 -62 -23 -5
-8 -13 -8 -30 0 -73 34 -102 41 -72 17 18 -14 18 -15 -6 -8 -14 4 -28 11 -31
16 -8 12 -62 21 -55 9 3 -5 -2 -15 -12 -22 -16 -13 -16 -13 -2 5 14 18 13 18
-8 12 -15 -5 -22 -3 -22 5 0 7 3 10 6 6 4 -3 13 0 20 8 15 15 19 29 6 21 -4
-2 -14 -1 -22 5 -10 6 -2 8 28 7 23 -1 45 2 49 5 3 4 -2 7 -13 7 -16 0 -17 2
-4 10 8 5 35 10 60 10 35 0 42 3 30 11 -11 8 -6 9 20 5 19 -4 57 -9 85 -12z
m1543 -62 c12 -35 -10 -74 -30 -54 -9 9 -9 12 1 12 10 0 12 9 8 29 -5 24 -1
41 9 41 1 0 6 -13 12 -28z m-2052 -60 c-12 -11 -18 7 -10 30 l8 23 4 -23 c2
-13 1 -26 -2 -30z m2114 -6 c0 -12 -5 -7 -19 24 -11 24 -11 24 3 6 9 -11 16
-24 16 -30z m-1780 26 c0 -13 -39 -32 -45 -22 -3 6 1 10 10 10 9 0 13 5 10 10
-3 6 1 10 9 10 9 0 16 -3 16 -8z m302 -55 c7 -7 32 -21 56 -31 23 -11 42 -22
42 -25 -1 -16 -29 -40 -46 -39 -10 0 -38 -4 -61 -10 -47 -11 -51 -8 -26 21 10
11 18 35 18 58 0 44 -1 43 17 26z m-88 -12 c4 -10 -1 -15 -14 -15 -13 0 -18 5
-14 15 4 8 10 15 14 15 4 0 10 -7 14 -15z m236 -25 c0 -5 -2 -10 -4 -10 -3 0
-8 5 -11 10 -3 6 -1 10 4 10 6 0 11 -4 11 -10z m-374 -22 c5 -13 8 -26 9 -30
0 -10 16 -23 28 -23 5 0 12 -6 15 -13 4 -12 0 -12 -19 -1 -27 14 -54 39 -42
39 4 0 -3 7 -15 16 -23 16 -21 34 3 34 7 0 17 -10 21 -22z m364 -18 c0 -9 -31
-23 -37 -17 -2 2 -1 11 3 20 5 15 34 13 34 -3z m1652 -14 c6 4 9 1 6 -7 -2 -7
-18 -21 -35 -30 -30 -17 -31 -17 -36 3 -3 11 -2 31 3 44 l10 24 20 -20 c11
-11 26 -18 32 -14z m-2057 13 c11 -16 1 -19 -13 -3 -7 8 -8 14 -3 14 5 0 13
-5 16 -11z m-325 -18 c0 -5 -7 -12 -16 -15 -14 -5 -15 -4 -4 9 14 17 20 19 20
6z m-498 -50 c2 -17 1 -28 -4 -25 -8 5 -12 54 -4 54 2 0 6 -13 8 -29z m2658
19 c0 -5 -2 -10 -4 -10 -3 0 -8 5 -11 10 -3 6 -1 10 4 10 6 0 11 -4 11 -10z
m-2638 -212 c2 -21 0 -38 -4 -38 -4 0 -7 24 -7 53 1 54 5 49 11 -15z m1263 -8
c10 -11 16 -20 13 -20 -3 0 -13 9 -23 20 -10 11 -16 20 -13 20 3 0 13 -9 23
-20z m135 -40 c0 -5 -4 -10 -10 -10 -5 0 -10 5 -10 10 0 6 5 10 10 10 6 0 10
-4 10 -10z m-1390 -22 c0 -18 -2 -20 -9 -8 -6 8 -7 18 -5 22 9 14 14 9 14 -14z
m443 -62 c4 -10 0 -12 -14 -9 -10 3 -16 9 -13 14 8 13 21 11 27 -5z m-3 -30
c0 -3 -4 -8 -10 -11 -5 -3 -10 -1 -10 4 0 6 5 11 10 11 6 0 10 -2 10 -4z
m2186 -180 c-2 -6 -5 -3 -5 7 -1 14 -6 17 -22 12 -20 -7 -20 -6 -2 12 18 18
18 18 26 -1 4 -11 6 -24 3 -30z m-2146 24 c0 -5 -5 -10 -11 -10 -5 0 -7 5 -4
10 3 6 8 10 11 10 2 0 4 -4 4 -10z m780 -14 c8 -3 5 -4 -7 -2 -12 2 -24 -1
-27 -8 -2 -6 -5 0 -5 13 -1 17 2 21 12 14 6 -6 19 -13 27 -17z m-780 -20 c0
-3 -4 -8 -10 -11 -5 -3 -10 -1 -10 4 0 6 5 11 10 11 6 0 10 -2 10 -4z m826
-49 c2 -14 -1 -15 -17 -6 -11 5 -17 15 -13 20 9 14 27 6 30 -14z m-59 -3 c-3
-3 -12 -4 -19 -1 -8 3 -5 6 6 6 11 1 17 -2 13 -5z m97 -45 c-3 -5 -11 -9 -17
-9 -8 0 -8 3 2 9 9 6 10 11 2 15 -6 4 -11 13 -11 19 0 7 7 3 15 -7 8 -10 12
-23 9 -27z m1416 26 c0 -8 -2 -15 -4 -15 -2 0 -6 7 -10 15 -3 8 -1 15 4 15 6
0 10 -7 10 -15z m-1500 -38 c0 -7 -10 -18 -22 -26 -18 -10 -20 -11 -10 0 6 7
12 21 12 32 0 10 5 15 10 12 6 -3 10 -12 10 -18z m11 -40 c-10 -9 -11 -8 -5 6
3 10 9 15 12 12 3 -3 0 -11 -7 -18z m394 13 c3 -5 1 -10 -4 -10 -6 0 -11 5
-11 10 0 6 2 10 4 10 3 0 8 -4 11 -10z m1103 -9 c3 -8 -1 -12 -9 -9 -7 2 -15
10 -17 17 -3 8 1 12 9 9 7 -2 15 -10 17 -17z m2 -31 c0 -5 -5 -10 -11 -10 -5
0 -7 -4 -4 -10 3 -5 3 -15 -1 -21 -10 -16 -23 9 -17 32 5 19 33 27 33 9z
m-2270 -36 c0 -3 -7 -1 -15 6 -8 7 -15 17 -15 22 0 5 7 3 15 -6 8 -8 15 -18
15 -22z m2286 -9 c-3 -8 -10 -15 -15 -15 -7 0 -6 10 1 26 12 26 25 16 14 -11z
m-1760 -43 c-17 -16 -18 -16 -5 5 7 12 15 20 18 17 3 -2 -3 -12 -13 -22z
m1494 8 c0 -5 -4 -10 -10 -10 -5 0 -10 5 -10 10 0 6 5 10 10 10 6 0 10 -4 10
-10z m250 -10 c0 -5 -4 -10 -10 -10 -5 0 -10 5 -10 10 0 6 5 10 10 10 6 0 10
-4 10 -10z m-1349 -27 c-12 -20 -14 -14 -5 12 4 9 9 14 11 11 3 -2 0 -13 -6
-23z m369 -17 c0 -12 -5 -7 -19 24 -11 24 -11 24 3 6 9 -11 16 -24 16 -30z
m181 -3 c13 -16 12 -17 -3 -4 -17 13 -22 21 -14 21 2 0 10 -8 17 -17z m-1441
-28 c0 -8 -2 -15 -4 -15 -2 0 -6 7 -10 15 -3 8 -1 15 4 15 6 0 10 -7 10 -15z
m720 -10 c0 -8 -4 -17 -10 -20 -6 -4 -10 5 -10 20 0 15 4 24 10 20 6 -3 10
-12 10 -20z m710 15 c0 -5 -2 -10 -4 -10 -3 0 -8 5 -11 10 -3 6 -1 10 4 10 6
0 11 -4 11 -10z m-753 -32 c-3 -8 -6 -5 -6 6 -1 11 2 17 5 13 3 -3 4 -12 1
-19z m591 -4 c20 -14 22 -14 23 3 0 14 2 15 6 3 4 -8 12 -20 19 -28 13 -13 9
-42 -7 -42 -4 0 -6 7 -3 15 4 9 0 15 -10 15 -9 0 -16 -5 -16 -11 0 -8 -5 -8
-15 1 -8 7 -15 19 -15 27 0 12 -3 12 -16 -1 -22 -22 -25 -20 -12 9 13 29 16
30 46 9z m-1245 -39 c-8 -22 -22 -18 -16 5 3 11 9 17 14 15 4 -3 6 -12 2 -20z
m2143 -2 c-10 -10 -19 5 -10 18 6 11 8 11 12 0 2 -7 1 -15 -2 -18z m-1594 -5
c-7 -7 -12 -8 -12 -2 0 14 12 26 19 19 2 -3 -1 -11 -7 -17z m611 -7 c-3 -11
-11 -22 -19 -25 -12 -4 -12 -2 -4 14 6 11 8 20 5 20 -4 0 -3 5 0 10 10 16 24
2 18 -19z m-208 10 c3 -5 1 -12 -4 -15 -5 -3 -11 1 -15 9 -6 16 9 21 19 6z
m1185 -33 c0 -6 -6 -5 -15 2 -8 7 -15 14 -15 16 0 2 7 1 15 -2 8 -4 15 -11 15
-16z m-2090 -18 c0 -5 -5 -10 -11 -10 -5 0 -7 5 -4 10 3 6 8 10 11 10 2 0 4
-4 4 -10z m1825 1 c3 -5 1 -12 -5 -16 -5 -3 -10 1 -10 9 0 18 6 21 15 7z
m-1772 -23 c-4 -7 -7 -22 -5 -33 1 -17 0 -16 -8 3 -10 25 -6 42 11 42 6 0 7
-6 2 -12z m-86 -40 c-3 -8 -6 -5 -6 6 -1 11 2 17 5 13 3 -3 4 -12 1 -19z m124
-21 c-13 -13 -15 1 -4 30 7 17 8 17 11 -1 2 -10 -1 -23 -7 -29z m-101 -1 c0
-3 -4 -8 -10 -11 -5 -3 -10 -1 -10 4 0 6 5 11 10 11 6 0 10 -2 10 -4z m50 -27
c0 -6 -4 -7 -10 -4 -5 3 -10 11 -10 16 0 6 5 7 10 4 6 -3 10 -11 10 -16z m731
-12 c-10 -9 -11 -8 -5 6 3 10 9 15 12 12 3 -3 0 -11 -7 -18z m1251 -9 c-6 -6
-12 -4 -16 7 -3 9 -2 13 4 10 6 -3 10 0 11 7 0 10 2 10 6 0 3 -8 1 -18 -5 -24z
m-1932 8 c0 -3 -4 -8 -10 -11 -5 -3 -10 -1 -10 4 0 6 5 11 10 11 6 0 10 -2 10
-4z m1710 -22 c0 -8 -4 -14 -9 -14 -5 0 -12 -8 -14 -17 -4 -14 -5 -12 -6 5 0
12 3 22 9 22 5 0 6 7 3 17 -4 11 -3 14 5 9 7 -4 12 -14 12 -22z m-2135 -25
c-3 -4 -12 -6 -20 -3 -8 4 -13 10 -10 15 3 4 12 6 20 3 8 -4 13 -10 10 -15z
m402 -26 c-3 -10 -5 -2 -5 17 0 19 2 27 5 18 2 -10 2 -26 0 -35z m1983 23 c0
-3 -4 -8 -10 -11 -5 -3 -10 -1 -10 4 0 6 5 11 10 11 6 0 10 -2 10 -4z m-384
-30 c-4 -15 -1 -26 7 -29 9 -3 9 -9 0 -25 -9 -15 -9 -22 -1 -24 7 -3 2 -13
-12 -26 -13 -12 -26 -19 -29 -16 -3 3 -1 8 4 12 6 4 11 27 13 52 4 50 11 80
19 80 3 0 2 -11 -1 -24z m61 -18 c-3 -8 -6 -5 -6 6 -1 11 2 17 5 13 3 -3 4
-12 1 -19z m-1627 2 c0 -5 -8 -10 -17 -10 -15 0 -16 2 -3 10 19 12 20 12 20 0z
m-444 -24 c1 -10 -1 -28 -6 -40 l-9 -21 0 23 c-1 12 -6 22 -12 22 -6 0 -8 -9
-4 -22 6 -18 5 -20 -5 -11 -10 9 -10 18 1 42 15 33 31 36 35 7z m2364 9 c-7
-8 -17 -15 -22 -15 -11 0 14 29 26 30 5 0 3 -7 -4 -15z m-1807 -9 c3 -8 -3
-20 -15 -28 -11 -7 -21 -25 -21 -40 -1 -14 -5 -24 -9 -21 -13 8 -9 40 7 53 9
7 14 19 11 26 -5 13 2 24 15 24 4 0 9 -6 12 -14z m627 -50 c0 -3 -4 -8 -10
-11 -5 -3 -10 -1 -10 4 0 6 5 11 10 11 6 0 10 -2 10 -4z m15 -28 c-3 -13 -8
-32 -9 -43 -2 -11 -9 -20 -17 -21 -26 -1 -30 8 -13 28 16 17 16 21 4 30 -13 8
-12 9 2 5 9 -3 19 1 22 9 9 23 19 16 11 -8z m835 -28 c0 -5 -5 -9 -11 -7 -6 1
-14 -4 -16 -10 -3 -7 2 -13 11 -13 9 0 16 -5 16 -10 0 -7 -6 -7 -20 0 -15 8
-18 7 -15 -2 3 -7 -6 -31 -20 -53 -13 -22 -25 -35 -25 -28 0 6 5 15 10 18 6 3
10 16 10 28 0 20 -4 18 -36 -15 -34 -37 -59 -53 -34 -23 6 8 9 19 6 24 -4 5 0
13 7 18 8 4 19 18 26 31 6 12 16 22 22 22 6 0 7 -4 4 -10 -3 -5 -1 -10 4 -10
6 0 11 4 11 9 0 12 29 41 41 41 5 0 9 -4 9 -10z m-1540 -30 c0 -5 -2 -10 -4
-10 -3 0 -8 5 -11 10 -3 6 -1 10 4 10 6 0 11 -4 11 -10z m710 -30 c-16 -31
-23 -19 -9 16 6 16 13 24 16 17 2 -7 -1 -22 -7 -33z m698 13 c-2 -9 -11 -17
-20 -19 -15 -2 -16 1 -8 17 13 23 33 25 28 2z m-18 -55 c0 -6 -6 -5 -15 2 -8
7 -15 14 -15 16 0 2 7 1 15 -2 8 -4 15 -11 15 -16z m-1405 2 c-3 -5 -12 -10
-18 -10 -7 0 -6 4 3 10 19 12 23 12 15 0z m1809 -55 c-4 -8 -11 -15 -16 -15
-6 0 -5 6 2 15 7 8 14 15 16 15 2 0 1 -7 -2 -15z m-396 -30 c-6 -14 -13 -24
-14 -22 -6 6 9 47 17 47 5 0 3 -11 -3 -25z m-1178 5 c0 -5 -5 -10 -11 -10 -5
0 -7 5 -4 10 3 6 8 10 11 10 2 0 4 -4 4 -10z m-570 -35 c0 -1 -7 -8 -15 -15
-13 -10 -15 -9 -15 8 0 15 5 20 15 16 8 -4 15 -7 15 -9z m1680 -11 c0 -14 -3
-14 -15 -4 -8 7 -15 14 -15 16 0 2 7 4 15 4 8 0 15 -7 15 -16z m500 -13 c0
-10 -12 -26 -26 -36 -15 -9 -25 -13 -22 -8 31 65 48 82 48 44z m-1000 -60 c0
-12 -5 -11 -21 6 -13 13 -18 26 -14 34 6 9 11 7 22 -6 7 -11 13 -26 13 -34z
m490 45 c0 -3 -4 -8 -10 -11 -5 -3 -10 -1 -10 4 0 6 5 11 10 11 6 0 10 -2 10
-4z m-877 -33 c-7 -19 -48 -63 -58 -63 -5 0 57 79 62 80 1 0 -1 -8 -4 -17z
m624 -5 c-3 -8 -6 -5 -6 6 -1 11 2 17 5 13 3 -3 4 -12 1 -19z m-535 -30 c-7
-7 -12 -8 -12 -2 0 14 12 26 19 19 2 -3 -1 -11 -7 -17z m328 -4 c0 -8 -4 -12
-10 -9 -5 3 -10 10 -10 16 0 5 5 9 10 9 6 0 10 -7 10 -16z m855 6 c3 -5 1 -10
-4 -10 -6 0 -11 5 -11 10 0 6 2 10 4 10 3 0 8 -4 11 -10z m-791 -9 c3 -5 -1
-11 -9 -14 -9 -4 -12 -1 -8 9 6 16 10 17 17 5z m-274 -29 c0 -10 -7 -27 -15
-38 -16 -21 -20 -8 -9 34 8 26 24 29 24 4z m143 11 c-8 -3 -11 -14 -7 -29 4
-15 2 -24 -5 -24 -6 0 -11 14 -11 30 0 22 5 30 18 29 10 0 12 -3 5 -6z m917
-3 c0 -5 -4 -10 -10 -10 -5 0 -10 5 -10 10 0 6 5 10 10 10 6 0 10 -4 10 -10z
m-1113 -42 c-3 -7 -5 -2 -5 12 0 14 2 19 5 13 2 -7 2 -19 0 -25z m273 28 c0
-9 -30 -14 -35 -6 -4 6 3 10 14 10 12 0 21 -2 21 -4z m52 -18 c-7 -7 -12 -8
-12 -2 0 14 12 26 19 19 2 -3 -1 -11 -7 -17z m-352 -4 c0 -8 -5 -12 -10 -9 -6
4 -8 11 -5 16 9 14 15 11 15 -7z m440 -14 c0 -5 -5 -10 -11 -10 -5 0 -7 5 -4
10 3 6 8 10 11 10 2 0 4 -4 4 -10z m-147 -15 c-3 -9 -8 -14 -10 -11 -3 3 -2 9
2 15 9 16 15 13 8 -4z m-282 -32 c-12 -20 -14 -14 -5 12 4 9 9 14 11 11 3 -2
0 -13 -6 -23z m145 15 c4 -7 4 -10 -1 -6 -4 4 -14 3 -22 -3 -13 -11 -19 2 -6
14 10 11 21 8 29 -5z m944 -32 c0 -3 -4 -8 -10 -11 -5 -3 -10 -1 -10 4 0 6 5
11 10 11 6 0 10 -2 10 -4z m15 -54 c-8 -8 -25 10 -19 20 4 6 9 5 15 -3 4 -7 6
-15 4 -17z m-60 -65 c6 -5 3 -7 -6 -4 -9 3 -22 0 -29 -6 -9 -8 -8 -5 1 10 7
12 16 19 19 15 3 -4 10 -11 15 -15z m-1845 -83 c0 -8 -5 -12 -10 -9 -6 4 -8
11 -5 16 9 14 15 11 15 -7z m275 -44 c10 -11 16 -20 13 -20 -3 0 -13 9 -23 20
-10 11 -16 20 -13 20 3 0 13 -9 23 -20z m-65 -180 c0 -5 -5 -10 -11 -10 -5 0
-7 5 -4 10 3 6 8 10 11 10 2 0 4 -4 4 -10z m1255 -30 c3 -5 1 -10 -4 -10 -6 0
-11 5 -11 10 0 6 2 10 4 10 3 0 8 -4 11 -10z m-893 -78 c-7 -2 -12 -7 -12 -12
0 -13 38 -18 49 -7 8 8 14 8 23 -1 15 -15 9 -21 -30 -25 -18 -2 -35 -7 -39
-11 -4 -3 -20 8 -35 25 -29 31 -32 53 -4 30 11 -9 17 -9 28 2 7 8 17 12 23 9
5 -3 4 -7 -3 -10z m196 -14 c-5 -14 -38 -20 -38 -6 0 6 7 8 15 4 8 -3 15 -1
15 4 0 6 3 10 6 10 3 0 4 -5 2 -12z m412 -18 c0 -5 -4 -10 -10 -10 -5 0 -10 5
-10 10 0 6 5 10 10 10 6 0 10 -4 10 -10z"/>
<path d="M2656 4344 c-11 -8 -16 -14 -10 -14 13 0 39 18 34 24 -3 2 -14 -2
-24 -10z"/>
<path d="M2615 4330 c-3 -5 -1 -10 4 -10 6 0 11 5 11 10 0 6 -2 10 -4 10 -3 0
-8 -4 -11 -10z"/>
<path d="M2420 4225 c-10 -12 -9 -16 4 -21 9 -4 20 -4 23 0 4 3 1 6 -5 6 -6 0
-9 7 -6 15 8 19 0 19 -16 0z"/>
<path d="M3925 4210 c3 -5 8 -10 11 -10 2 0 4 5 4 10 0 6 -5 10 -11 10 -5 0
-7 -4 -4 -10z"/>
<path d="M2660 3685 c-10 -12 -10 -15 3 -15 8 0 17 7 21 15 3 8 2 15 -3 15 -5
0 -14 -7 -21 -15z"/>
<path d="M2725 3600 c3 -5 17 -10 31 -10 14 0 22 4 19 10 -3 6 -17 10 -31 10
-14 0 -22 -4 -19 -10z"/>
<path d="M4130 3570 c0 -5 5 -10 10 -10 6 0 10 5 10 10 0 6 -4 10 -10 10 -5 0
-10 -4 -10 -10z"/>
<path d="M2905 3560 c-3 -5 -1 -10 4 -10 6 0 11 5 11 10 0 6 -2 10 -4 10 -3 0
-8 -4 -11 -10z"/>
<path d="M3972 3553 c5 -19 3 -20 -23 -13 -17 5 -29 5 -29 -1 0 -14 -42 -11
-74 6 -36 19 -42 19 -26 0 10 -12 3 -14 -54 -10 -36 2 -68 -1 -71 -5 -3 -5
-22 -6 -43 -4 -28 4 -33 3 -22 -5 12 -8 9 -12 -17 -17 -18 -4 -33 -13 -33 -20
0 -8 -6 -14 -12 -15 -7 0 -23 -13 -36 -30 -20 -25 -21 -28 -5 -23 10 4 31 19
47 33 24 22 28 23 22 7 -6 -18 -5 -19 11 -4 34 29 48 31 23 3 -15 -17 -19 -26
-10 -23 8 3 41 2 72 -1 37 -5 62 -3 73 5 9 7 26 9 38 6 20 -6 20 -7 -8 -14
-18 -4 -5 -5 30 -2 33 3 71 12 84 21 17 11 26 12 34 4 8 -8 6 -11 -6 -11 -9 0
-17 -4 -17 -8 0 -9 45 -16 107 -16 23 0 39 -3 35 -6 -4 -3 -8 -13 -10 -22 -2
-13 4 -18 20 -18 31 0 58 -32 46 -54 -6 -10 -5 -16 1 -16 5 0 11 5 13 11 2 7
11 7 28 0 14 -5 21 -10 16 -10 -6 -1 -1 -8 10 -16 10 -8 14 -15 7 -15 -6 0
-15 5 -18 10 -7 12 -25 13 -25 3 0 -8 50 -41 83 -55 9 -4 17 -12 17 -18 0 -6
-5 -8 -12 -4 -7 4 -8 3 -4 -5 13 -20 26 -1 19 27 -3 15 -9 29 -12 32 -16 13
-44 53 -30 42 9 -6 19 -9 22 -5 4 3 7 -2 7 -12 0 -15 3 -16 12 -7 9 9 6 17
-13 35 -13 14 -41 49 -63 80 -25 37 -59 68 -97 92 -33 20 -59 40 -59 45 0 5
-7 7 -15 4 -9 -4 -15 0 -15 9 0 9 -5 19 -12 23 -7 5 -9 1 -6 -13z m128 -169
c0 -2 -9 -4 -21 -4 -11 0 -18 4 -14 10 5 8 35 3 35 -6z"/>
<path d="M2930 3541 c0 -6 5 -12 10 -12 21 -3 26 -5 53 -23 37 -25 45 -15 9
11 -35 26 -72 38 -72 24z"/>
<path d="M3565 3517 c-11 -7 -21 -19 -23 -27 -3 -11 3 -9 20 6 13 12 30 24 38
27 13 5 13 5 0 6 -8 0 -24 -5 -35 -12z"/>
<path d="M4082 3505 c15 -16 30 -26 33 -23 4 3 -9 16 -27 28 l-33 23 27 -28z"/>
<path d="M3479 3463 c-13 -17 -13 -17 6 -3 11 8 22 16 24 17 2 2 0 3 -6 3 -6
0 -17 -8 -24 -17z"/>
<path d="M3500 3450 c-8 -5 -12 -12 -9 -15 4 -3 12 1 19 10 14 17 11 19 -10 5z"/>
<path d="M3605 3404 c-16 -14 -21 -21 -10 -16 30 16 61 41 50 41 -5 0 -23 -11
-40 -25z"/>
<path d="M3685 3400 c3 -5 11 -10 16 -10 6 0 7 5 4 10 -3 6 -11 10 -16 10 -6
0 -7 -4 -4 -10z"/>
<path d="M3660 3345 c-35 -18 -92 -37 -111 -38 -9 -1 -14 -8 -12 -17 3 -10 -3
-16 -16 -16 -11 0 -17 4 -15 8 3 4 1 8 -4 8 -6 0 -12 -7 -16 -15 -3 -8 -1 -15
4 -15 6 0 10 -5 10 -11 0 -5 -3 -8 -7 -6 -5 3 -9 -9 -10 -26 -2 -31 -2 -32 15
-12 9 12 26 27 37 35 13 10 11 4 -7 -18 -22 -26 -25 -36 -17 -50 15 -23 102
-64 109 -52 4 6 14 3 26 -6 10 -8 13 -13 7 -9 -7 3 -13 1 -13 -4 0 -14 27 -14
35 -2 3 6 24 4 52 -4 37 -11 49 -12 55 -2 6 9 8 9 8 0 0 -7 11 -12 25 -11 14
1 25 7 25 12 0 6 5 5 11 -1 8 -8 21 -6 47 8 22 13 37 17 41 10 4 -6 12 -6 21
-1 9 6 24 1 44 -13 16 -11 26 -15 22 -8 -7 10 -3 11 15 6 13 -4 27 -13 32 -19
5 -8 10 -6 17 4 5 8 10 10 10 5 0 -6 9 -11 20 -12 24 -2 24 -3 5 33 -11 22
-12 30 -2 34 19 8 21 34 1 26 -12 -4 -15 -2 -10 9 3 8 1 15 -4 15 -9 0 -49 31
-92 73 -10 9 -19 17 -20 16 -2 0 -10 2 -18 4 -91 27 -165 44 -225 52 -27 3
-54 10 -60 14 -5 4 -21 2 -35 -4z m5 -114 c0 -27 7 -47 22 -63 22 -23 22 -24
3 -36 -12 -7 -20 -8 -20 -2 0 5 6 10 13 11 6 0 -10 7 -37 14 -26 7 -54 11 -61
9 -15 -6 -18 53 -3 62 7 4 8 2 4 -4 -4 -7 -1 -12 8 -12 9 0 15 4 14 9 -3 8 41
50 52 51 3 0 5 -18 5 -39z m125 8 c0 -5 -7 -9 -15 -9 -15 0 -20 12 -9 23 8 8
24 -1 24 -14z m130 -20 c0 -6 4 -8 9 -4 6 3 8 -6 5 -22 -4 -20 1 -32 18 -46
23 -19 17 -19 -29 0 -12 5 -15 2 -10 -10 3 -9 2 -17 -3 -17 -6 0 -10 5 -10 11
0 8 -4 8 -12 2 -9 -6 -21 -6 -36 2 -22 12 -22 12 -2 30 11 10 22 33 26 51 5
29 9 32 25 23 10 -5 19 -14 19 -20z m-362 -25 c0 -18 -5 -24 -15 -20 -8 3 -17
6 -20 6 -4 0 2 9 12 20 23 25 23 25 23 -6z m289 -77 c-3 -11 -86 -17 -93 -6
-2 4 -13 5 -24 2 -11 -3 -20 0 -20 6 0 8 23 11 70 10 41 -1 69 -6 67 -12z"/>
<path d="M4175 3226 c17 -13 32 -22 34 -20 5 5 -42 43 -54 44 -5 0 4 -11 20
-24z"/>
<path d="M2777 3163 c-4 -3 -7 -13 -7 -22 1 -13 3 -13 11 2 11 19 8 33 -4 20z"/>
<path d="M4328 3163 c15 -6 16 -35 0 -51 -7 -7 -8 -12 -2 -12 5 0 15 9 22 21
14 22 1 50 -22 48 -7 0 -6 -2 2 -6z"/>
<path d="M3460 3150 c0 -6 6 -26 14 -44 16 -38 37 -57 29 -26 -3 11 -9 20 -14
20 -5 0 -9 14 -9 30 0 17 -4 30 -10 30 -5 0 -10 -5 -10 -10z"/>
<path d="M3410 3124 c0 -11 7 -29 16 -40 14 -18 15 -18 8 6 -3 14 -10 32 -15
40 -7 12 -8 11 -9 -6z"/>
<path d="M2860 3105 c-7 -9 -8 -15 -2 -15 5 0 12 7 16 15 3 8 4 15 2 15 -2 0
-9 -7 -16 -15z"/>
<path d="M3575 3110 c-3 -5 -1 -10 5 -10 6 0 8 -4 5 -10 -3 -5 0 -7 8 -4 8 3
18 1 22 -5 3 -6 11 -11 17 -11 7 0 7 4 -1 13 -6 8 -7 18 -3 22 4 5 1 5 -6 1
-7 -4 -19 -3 -27 4 -9 7 -15 8 -20 0z"/>
<path d="M4324 3069 c-3 -6 -2 -15 3 -20 5 -5 9 -1 9 11 0 23 -2 24 -12 9z"/>
<path d="M2450 3050 c0 -5 5 -10 10 -10 6 0 10 5 10 10 0 6 -4 10 -10 10 -5 0
-10 -4 -10 -10z"/>
<path d="M2606 3013 c-11 -11 -6 -23 9 -23 8 0 15 4 15 9 0 13 -16 22 -24 14z"/>
<path d="M4330 2926 c0 -2 8 -10 18 -17 15 -13 16 -12 3 4 -13 16 -21 21 -21
13z"/>
<path d="M3427 2886 c-4 -10 -5 -21 -2 -24 9 -9 17 6 13 25 -3 17 -4 17 -11
-1z"/>
<path d="M3476 2858 c-4 -17 -8 -20 -14 -10 -7 10 -13 6 -27 -15 -10 -15 -12
-22 -4 -15 18 17 34 15 20 -2 -10 -11 -6 -20 16 -41 17 -17 21 -25 11 -22 -12
4 -15 2 -11 -9 3 -8 11 -13 18 -10 8 3 11 -2 8 -15 -3 -11 0 -19 7 -19 7 0 10
-7 7 -15 -4 -8 -2 -17 3 -20 6 -4 10 0 10 7 1 9 5 7 14 -4 7 -10 16 -15 19
-11 4 3 3 11 -3 18 -6 7 -4 21 6 40 14 26 13 31 -12 67 -33 48 -44 55 -55 37
-7 -12 -9 -11 -9 2 0 8 5 20 12 27 8 8 9 15 1 23 -7 7 -12 4 -17 -13z"/>
<path d="M2270 2850 c0 -5 7 -10 15 -10 8 0 15 5 15 10 0 6 -7 10 -15 10 -8 0
-15 -4 -15 -10z"/>
<path d="M4367 2809 c7 -7 15 -10 18 -7 3 3 -2 9 -12 12 -14 6 -15 5 -6 -5z"/>
<path d="M4251 2744 c0 -11 3 -14 6 -6 3 7 2 16 -1 19 -3 4 -6 -2 -5 -13z"/>
<path d="M3562 2698 c2 -12 13 -27 25 -33 20 -10 21 -13 6 -27 -8 -9 -13 -22
-11 -30 3 -8 10 -2 20 16 14 27 14 32 -4 63 -23 38 -41 43 -36 11z"/>
<path d="M4304 2679 c-3 -6 -2 -15 3 -20 5 -5 9 -1 9 11 0 23 -2 24 -12 9z"/>
<path d="M3437 2623 c-8 -12 12 -22 31 -16 6 3 12 9 12 15 0 7 -5 6 -14 -1
-11 -9 -15 -9 -18 1 -3 8 -6 9 -11 1z"/>
<path d="M2320 2596 c0 -8 4 -17 9 -20 10 -7 23 19 14 28 -11 11 -23 6 -23 -8z"/>
<path d="M4320 2596 c0 -8 5 -18 10 -21 6 -3 10 3 10 14 0 12 -4 21 -10 21 -5
0 -10 -6 -10 -14z"/>
<path d="M4185 2390 c-3 -5 -1 -10 4 -10 6 0 11 5 11 10 0 6 -2 10 -4 10 -3 0
-8 -4 -11 -10z"/>
<path d="M3934 2375 c3 -8 1 -15 -4 -15 -6 0 -10 6 -10 13 0 6 -5 4 -11 -7
-16 -26 13 -55 35 -36 21 17 21 60 0 60 -10 0 -14 -6 -10 -15z"/>
<path d="M3260 2311 c0 -14 44 -21 55 -9 7 8 5 9 -7 5 -10 -4 -18 -2 -18 3 0
6 -7 10 -15 10 -8 0 -15 -4 -15 -9z"/>
<path d="M3313 2243 c-15 -5 -17 -23 -4 -23 5 0 11 7 15 15 3 8 4 15 3 14 -1
0 -8 -3 -14 -6z"/>
<path d="M2475 2210 c-8 -13 5 -13 25 0 13 8 13 10 -2 10 -9 0 -20 -4 -23 -10z"/>
<path d="M4160 2198 c0 -9 5 -20 10 -23 13 -8 13 5 0 25 -8 13 -10 13 -10 -2z"/>
<path d="M4132 2180 c5 -16 48 -46 48 -34 0 5 -12 18 -27 28 -16 12 -24 14
-21 6z"/>
<path d="M2785 2060 c-3 -5 -1 -10 4 -10 6 0 11 5 11 10 0 6 -2 10 -4 10 -3 0
-8 -4 -11 -10z"/>
<path d="M3214 2059 c-3 -5 6 -9 20 -9 32 0 41 15 10 16 -13 1 -27 -2 -30 -7z"/>
<path d="M3322 2045 c-16 -19 -4 -19 28 0 22 13 23 14 5 14 -11 0 -26 -6 -33
-14z"/>
<path d="M3802 2020 c0 -14 2 -19 5 -12 2 6 2 18 0 25 -3 6 -5 1 -5 -13z"/>
<path d="M2740 1985 c-11 -13 -10 -14 4 -9 9 3 16 10 16 15 0 13 -6 11 -20 -6z"/>
<path d="M2724 1926 c-10 -8 -16 -17 -13 -20 3 -3 14 3 24 14 21 23 17 26 -11
6z"/>
<path d="M3145 1930 c-3 -5 -2 -10 4 -10 5 0 13 5 16 10 3 6 2 10 -4 10 -5 0
-13 -4 -16 -10z"/>
<path d="M3208 1929 c-18 -6 -15 -7 14 -8 24 -1 41 -7 47 -18 6 -11 11 -13 11
-5 0 7 10 16 23 21 18 7 14 9 -25 12 -26 2 -57 1 -70 -2z"/>
<path d="M3330 1921 c0 -5 12 -8 26 -8 18 0 22 2 13 8 -18 11 -39 11 -39 0z"/>
<path d="M3963 1910 c-7 -18 -7 -34 1 -55 l11 -30 3 28 c2 15 2 39 0 55 l-4
27 -11 -25z"/>
<path d="M3425 1860 c-3 -5 1 -10 10 -10 9 0 13 5 10 10 -3 6 -8 10 -10 10 -2
0 -7 -4 -10 -10z"/>
<path d="M2653 1821 c0 -11 5 -18 9 -15 4 3 5 11 1 19 -7 21 -12 19 -10 -4z"/>
<path d="M3466 1827 c3 -10 9 -15 12 -12 3 3 0 11 -7 18 -10 9 -11 8 -5 -6z"/>
<path d="M3936 1823 c-6 -14 -5 -15 5 -6 7 7 10 15 7 18 -3 3 -9 -2 -12 -12z"/>
<path d="M2820 1759 c0 -5 5 -7 10 -4 6 3 10 8 10 11 0 2 -4 4 -10 4 -5 0 -10
-5 -10 -11z"/>
<path d="M2855 1760 c-3 -5 -2 -10 4 -10 5 0 13 5 16 10 3 6 2 10 -4 10 -5 0
-13 -4 -16 -10z"/>
<path d="M3645 1730 c-3 -5 -2 -10 4 -10 5 0 13 5 16 10 3 6 2 10 -4 10 -5 0
-13 -4 -16 -10z"/>
<path d="M2961 1691 c-10 -6 -10 -10 -1 -16 13 -8 24 -1 19 14 -3 6 -10 7 -18
2z"/>
<path d="M3162 1676 c-36 -21 -38 -27 -4 -15 18 6 32 15 32 20 0 5 -1 9 -2 8
-2 -1 -13 -7 -26 -13z"/>
<path d="M3015 1641 c-6 -11 9 -23 19 -14 9 9 7 23 -3 23 -6 0 -12 -4 -16 -9z"/>
<path d="M3220 1625 c0 -8 4 -15 10 -15 5 0 7 7 4 15 -4 8 -8 15 -10 15 -2 0
-4 -7 -4 -15z"/>
<path d="M3287 1603 c-4 -3 -7 -11 -7 -17 0 -6 5 -5 12 2 6 6 9 14 7 17 -3 3
-9 2 -12 -2z"/>
<path d="M3520 1569 c0 -5 5 -7 10 -4 6 3 10 8 10 11 0 2 -4 4 -10 4 -5 0 -10
-5 -10 -11z"/>
<path d="M3670 1563 c0 -5 5 -15 10 -23 8 -12 10 -11 10 8 0 12 -4 22 -10 22
-5 0 -10 -3 -10 -7z"/>
<path d="M3291 1524 c0 -11 3 -14 6 -6 3 7 2 16 -1 19 -3 4 -6 -2 -5 -13z"/>
<path d="M2680 3350 c0 -5 5 -10 11 -10 5 0 7 5 4 10 -3 6 -8 10 -11 10 -2 0
-4 -4 -4 -10z"/>
<path d="M4615 3190 c-3 -6 1 -7 9 -4 18 7 21 14 7 14 -6 0 -13 -4 -16 -10z"/>
<path d="M4028 5863 c7 -3 16 -2 19 1 4 3 -2 6 -13 5 -11 0 -14 -3 -6 -6z"/>
<path d="M4065 5850 c3 -5 11 -10 16 -10 6 0 7 5 4 10 -3 6 -11 10 -16 10 -6
0 -7 -4 -4 -10z"/>
<path d="M3410 5846 c0 -2 7 -6 15 -10 8 -3 15 -1 15 4 0 6 -7 10 -15 10 -8 0
-15 -2 -15 -4z"/>
<path d="M3848 5833 c-28 -7 -30 -31 -2 -25 13 2 24 11 24 18 0 8 -1 13 -2 13
-2 -1 -10 -3 -20 -6z"/>
<path d="M3720 5816 c0 -2 7 -9 15 -16 9 -7 15 -8 15 -2 0 5 -7 12 -15 16 -8
3 -15 4 -15 2z"/>
<path d="M3915 5810 c-3 -5 -1 -10 4 -10 6 0 11 5 11 10 0 6 -2 10 -4 10 -3 0
-8 -4 -11 -10z"/>
<path d="M4110 5806 c0 -2 8 -10 18 -17 15 -13 16 -12 3 4 -13 16 -21 21 -21
13z"/>
<path d="M4891 5146 c2 -2 18 -6 34 -10 22 -5 26 -4 15 4 -14 9 -59 15 -49 6z"/>
<path d="M4961 5127 c2 -1 13 -9 24 -17 19 -14 19 -14 6 3 -7 9 -18 17 -24 17
-6 0 -8 -1 -6 -3z"/>
<path d="M5040 5058 c19 -26 36 -46 38 -43 5 5 -32 57 -54 76 -9 8 -2 -7 16
-33z"/>
<path d="M4890 5040 c0 -5 5 -10 10 -10 6 0 10 5 10 10 0 6 -4 10 -10 10 -5 0
-10 -4 -10 -10z"/>
<path d="M5082 4950 c-8 -13 -8 -20 -2 -20 6 0 13 7 17 15 9 24 -1 27 -15 5z"/>
<path d="M4971 4714 c0 -11 3 -14 6 -6 3 7 2 16 -1 19 -3 4 -6 -2 -5 -13z"/>
<path d="M1628 4713 c6 -2 18 -2 25 0 6 3 1 5 -13 5 -14 0 -19 -2 -12 -5z"/>
<path d="M1580 4555 c-7 -14 -10 -28 -7 -32 4 -3 7 1 7 10 0 10 4 17 9 17 5 0
11 7 15 15 9 25 -10 17 -24 -10z"/>
<path d="M1636 4353 c7 -39 13 -41 12 -4 -1 17 -5 31 -9 31 -4 0 -5 -12 -3
-27z"/>
<path d="M4885 3900 c-3 -5 -1 -10 4 -10 6 0 11 5 11 10 0 6 -2 10 -4 10 -3 0
-8 -4 -11 -10z"/>
<path d="M1710 3800 c0 -5 5 -10 10 -10 6 0 10 5 10 10 0 6 -4 10 -10 10 -5 0
-10 -4 -10 -10z"/>
<path d="M4628 3133 c7 -3 16 -2 19 1 4 3 -2 6 -13 5 -11 0 -14 -3 -6 -6z"/>
<path d="M4721 3124 c0 -11 3 -14 6 -6 3 7 2 16 -1 19 -3 4 -6 -2 -5 -13z"/>
<path d="M4731 3084 c0 -11 3 -14 6 -6 3 7 2 16 -1 19 -3 4 -6 -2 -5 -13z"/>
<path d="M4679 2985 c-3 -5 -6 -23 -7 -40 -1 -29 -1 -29 9 -6 10 25 8 65 -2
46z"/>
<path d="M4731 2954 c0 -11 3 -14 6 -6 3 7 2 16 -1 19 -3 4 -6 -2 -5 -13z"/>
<path d="M4682 2785 c0 -16 2 -22 5 -12 2 9 2 23 0 30 -3 6 -5 -1 -5 -18z"/>
<path d="M4590 2669 c0 -5 5 -7 10 -4 6 3 10 8 10 11 0 2 -4 4 -10 4 -5 0 -10
-5 -10 -11z"/>
<path d="M1970 1970 c0 -5 4 -10 9 -10 6 0 13 5 16 10 3 6 -1 10 -9 10 -9 0
-16 -4 -16 -10z"/>
<path d="M2031 1604 c0 -11 3 -14 6 -6 3 7 2 16 -1 19 -3 4 -6 -2 -5 -13z"/>
<path d="M2160 1360 c0 -5 5 -10 11 -10 5 0 7 5 4 10 -3 6 -8 10 -11 10 -2 0
-4 -4 -4 -10z"/>
<path d="M4266 1304 c-6 -16 2 -18 22 -5 11 7 11 9 -1 14 -9 3 -18 -1 -21 -9z"/>
<path d="M4055 980 c-3 -5 -1 -10 4 -10 6 0 11 5 11 10 0 6 -2 10 -4 10 -3 0
-8 -4 -11 -10z"/>
<path d="M3930 925 c-8 -9 -8 -15 -2 -15 12 0 26 19 19 26 -2 2 -10 -2 -17
-11z"/>
<path d="M3635 730 c27 -12 43 -12 25 0 -8 5 -22 9 -30 9 -10 0 -8 -3 5 -9z"/>
<path d="M3410 679 c0 -5 5 -7 10 -4 6 3 10 8 10 11 0 2 -4 4 -10 4 -5 0 -10
-5 -10 -11z"/>
</g>
</svg>
